<svg width="18" height="19" viewBox="0 0 18 19" fill="none" xmlns="http://www.w3.org/2000/svg">
<g id="Padlock Square 1" clip-path="url(#clip0_1_18)">
<g id="padlock-square-1--combination-combo-lock-locked-padlock-secure-security-shield-keyhole">
<path id="Subtract" fill-rule="evenodd" clip-rule="evenodd" d="M9 3.07143C8.31801 3.07143 7.66396 3.34235 7.18172 3.82458C6.69949 4.30682 6.42857 4.96087 6.42857 5.64286V6.92857H11.5714V5.64286C11.5714 4.96087 11.3005 4.30682 10.8183 3.82458C10.336 3.34235 9.68198 3.07143 9 3.07143ZM3.85714 5.64286V6.92857C3.34565 6.92857 2.85511 7.13176 2.49344 7.49344C2.13176 7.85511 1.92857 8.34565 1.92857 8.85714V16.5714C1.92857 17.0829 2.13176 17.5735 2.49344 17.9351C2.85511 18.2968 3.34565 18.5 3.85714 18.5H14.1429C14.6543 18.5 15.1449 18.2968 15.5066 17.9351C15.8682 17.5735 16.0714 17.0829 16.0714 16.5714V8.85714C16.0714 8.34565 15.8682 7.85511 15.5066 7.49344C15.1449 7.13176 14.6543 6.92857 14.1429 6.92857V5.64286C14.1429 4.27889 13.601 2.97078 12.6365 2.00631C11.6721 1.04184 10.364 0.5 9 0.5C7.63603 0.5 6.32792 1.04184 5.36345 2.00631C4.39898 2.97078 3.85714 4.27889 3.85714 5.64286ZM9 14.3214C9.21105 14.3214 9.42004 14.2799 9.61503 14.1991C9.81001 14.1183 9.98718 13.9999 10.1364 13.8507C10.2857 13.7015 10.404 13.5243 10.4848 13.3293C10.5656 13.1343 10.6071 12.9253 10.6071 12.7143C10.6071 12.5032 10.5656 12.2942 10.4848 12.0993C10.404 11.9043 10.2857 11.7271 10.1364 11.5779C9.98718 11.4286 9.81001 11.3102 9.61503 11.2295C9.42004 11.1487 9.21105 11.1071 9 11.1071C8.57376 11.1071 8.16497 11.2765 7.86358 11.5779C7.56218 11.8793 7.39286 12.288 7.39286 12.7143C7.39286 13.1405 7.56218 13.5493 7.86358 13.8507C8.16497 14.1521 8.57376 14.3214 9 14.3214Z" fill="black"/>
</g>
</g>
<defs>
<clipPath id="clip0_1_18">
<rect width="18" height="18" fill="white" transform="translate(0 0.5)"/>
</clipPath>
</defs>
</svg>
