<svg width="212" height="212" viewBox="0 0 212 212" fill="none" xmlns="http://www.w3.org/2000/svg">
<g id="Forgot password illustration">
<mask id="mask0_0_324" style="mask-type:luminance" maskUnits="userSpaceOnUse" x="0" y="0" width="212" height="212">
<rect id="Background" y="-3.05176e-05" width="212" height="212" fill="white"/>
</mask>
<g mask="url(#mask0_0_324)">
<g id="background-complete--inject-74">
<path id="Shape" fill-rule="evenodd" clip-rule="evenodd" d="M80.4117 96.9475C84.5461 100.163 90.4586 99.6572 93.9863 95.7855C97.514 91.9137 97.4692 85.9797 93.8836 82.1616C90.2979 78.3435 84.3784 77.9266 80.2929 81.2044L78.0966 79.5084L74.8276 80.5302L75.2007 77.2612L72.4447 75.12L69.1799 76.1376L69.553 72.8686L67.1829 71.0284L65.1901 71.6474L65.419 69.6546L64.0241 68.5692L60.8949 68.8745L60.4709 73.6827L76.8628 86.4239C75.8214 90.3262 77.2197 94.4727 80.4117 96.9475L80.4117 96.9475ZM92.3558 93.5259C91.3818 94.7789 89.5765 95.0056 88.323 94.0322C87.0694 93.0588 86.8419 91.2537 87.8146 89.9996C88.7874 88.7456 90.5925 88.5172 91.847 89.4894C93.0988 90.4654 93.3263 92.2697 92.3558 93.5259L92.3558 93.5259Z" fill="#EBEBEB"/>
<path id="Shape_2" fill-rule="evenodd" clip-rule="evenodd" d="M93.6235 58.6264C95.3998 56.4556 95.2069 53.2836 93.1807 51.3439C91.1546 49.4042 87.9771 49.3499 85.8858 51.2191C83.7945 53.0884 83.4933 56.252 85.1943 58.4823L84.2488 59.6356L84.7534 61.3994L83.0065 61.1577L81.832 62.6078L82.3366 64.3716L80.5939 64.1257L79.5763 65.3723L79.8816 66.445L78.8174 66.2966L78.228 67.0216L78.351 68.7176L80.9204 69.0059L87.9503 60.3945C90.0249 60.9987 92.2595 60.3022 93.6235 58.6264H93.6235ZM91.9274 52.1901C92.5849 52.7287 92.6815 53.6982 92.1431 54.3558C91.6047 55.0134 90.6352 55.1102 89.9774 54.5719C89.3197 54.0337 89.2227 53.0642 89.7608 52.4064C90.0191 52.0842 90.3962 51.8797 90.8071 51.839C91.218 51.7983 91.628 51.9249 91.9444 52.1901H91.9274Z" fill="#EBEBEB"/>
<path id="Polygon" fill-rule="evenodd" clip-rule="evenodd" d="M70.9436 22.2048V53.318H26.2498L24.6428 22.4211L70.9436 22.2048Z" fill="#E0E0E0"/>
<rect id="Rectangle" x="24.6428" y="53.2538" width="30.8328" height="44.6932" transform="rotate(-90 24.6428 53.2538)" fill="white"/>
<path id="Shape_3" fill-rule="evenodd" clip-rule="evenodd" d="M69.536 53.4663H24.4309V22.209H69.536V53.4663ZM24.8464 53.0423H69.112V22.633H24.8549L24.8464 53.0423Z" fill="#E0E0E0"/>
<rect id="Rectangle_2" x="29.4807" y="26.2498" width="35.0097" height="23.1716" fill="white"/>
<path id="Shape_4" fill-rule="evenodd" clip-rule="evenodd" d="M64.4947 26.2498H64.3209H63.8206L61.9041 26.2879H54.6961L29.4935 26.3388L29.5953 26.2371C29.5953 33.3179 29.5953 41.1619 29.5953 49.4087L29.485 49.2984L64.499 49.3239L64.4099 49.4086C64.4099 42.3575 64.4438 36.5784 64.4565 32.5504C64.4565 30.5364 64.4565 28.9676 64.4777 27.8864C64.4777 27.3522 64.4777 26.9451 64.4777 26.6611C64.4777 26.377 64.4777 26.2371 64.4777 26.2371C64.4777 26.2371 64.4777 26.3727 64.4777 26.6611C64.4777 26.9494 64.4777 27.3437 64.4777 27.8695C64.4777 28.9422 64.4777 30.511 64.4777 32.5335C64.4777 36.5742 64.5074 42.3745 64.5244 49.4468V49.5358H64.4396H29.4257H29.3154V49.4214C29.3154 41.1746 29.3154 33.3306 29.3154 26.2498V26.148H29.4172L54.6876 26.1989L61.8956 26.2286H63.7993H64.2869L64.4947 26.2498Z" fill="#E0E0E0"/>
<path id="Shape_5" fill-rule="evenodd" clip-rule="evenodd" d="M24.6387 22.332C24.9148 22.4677 25.1738 22.6357 25.4104 22.8324C25.8683 23.1631 26.4873 23.6295 27.1615 24.168C27.8356 24.7064 28.4335 25.2152 28.8575 25.5968C29.0971 25.7872 29.3121 26.0065 29.4977 26.2498C29.4553 26.2964 28.3826 25.4018 27.0385 24.3418C26.1975 23.7225 25.396 23.0513 24.6387 22.332Z" fill="#E0E0E0"/>
<path id="Shape_6" fill-rule="evenodd" clip-rule="evenodd" d="M69.3325 22.4211C68.6 23.1419 67.8179 23.8106 66.9921 24.4223C66.206 25.0887 65.3744 25.6994 64.5032 26.2498C65.2385 25.5287 66.0234 24.8599 66.8521 24.2485C67.635 23.5818 68.4638 22.9712 69.3325 22.4211L69.3325 22.4211Z" fill="#E0E0E0"/>
<path id="Shape_7" fill-rule="evenodd" clip-rule="evenodd" d="M69.2986 53.2586L64.3167 49.2178L69.2986 53.2586Z" fill="white"/>
<path id="Shape_8" fill-rule="evenodd" clip-rule="evenodd" d="M64.3167 49.2178C65.2071 49.8045 66.057 50.4504 66.8607 51.1513C67.7138 51.8034 68.5226 52.5117 69.2817 53.2713C68.3904 52.6858 67.5404 52.0398 66.7377 51.3378C65.8811 50.6899 65.072 49.9814 64.3167 49.2178L64.3167 49.2178Z" fill="#E0E0E0"/>
<path id="Shape_9" fill-rule="evenodd" clip-rule="evenodd" d="M24.6387 53.2543C25.3668 52.54 26.1446 51.8783 26.9665 51.2742C27.7444 50.6141 28.5676 50.0091 29.4299 49.4637C28.7059 50.1821 27.9292 50.8454 27.1064 51.4481C26.3277 52.1079 25.5031 52.7116 24.6387 53.2543L24.6387 53.2543Z" fill="#E0E0E0"/>
<path id="Rectangle_3" fill-rule="evenodd" clip-rule="evenodd" d="M36.5911 41.2294L36.5911 33.4703H58.6218V41.2294L36.5911 41.2294Z" fill="#E0E0E0"/>
</g>
<g id="Floor--inject-74">
<path id="Shape_10" fill-rule="evenodd" clip-rule="evenodd" d="M181.896 199.043C181.896 199.157 145.483 199.255 100.573 199.255C55.6628 199.255 19.2369 199.157 19.2369 199.043C19.2369 198.928 55.6458 198.831 100.573 198.831C145.5 198.831 181.896 198.928 181.896 199.043Z" fill="#263238"/>
</g>
<g id="inject-74">
<path id="Polygon_2" fill-rule="evenodd" clip-rule="evenodd" d="M147.887 183.592L158.381 198.852L162.133 198.941L155.256 183.249L147.887 183.592Z" fill="#263238"/>
<path id="Polygon_3" fill-rule="evenodd" clip-rule="evenodd" d="M37.1508 184.368L31.6218 198.784H34.3863L44.0408 184.432L37.1508 184.368Z" fill="#263238"/>
<path id="Shape_11" fill-rule="evenodd" clip-rule="evenodd" d="M34.7679 131.991L35.1919 150.647C35.248 153.284 37.3713 155.41 40.0086 155.468L144.393 157.792C145.72 157.821 147.003 157.315 147.951 156.387C148.9 155.459 149.435 154.188 149.434 152.86V130.388C149.432 123.765 144.548 118.157 137.987 117.244C118.877 114.616 79.4745 110.575 47.6109 116.316C40.0548 117.667 34.6063 124.317 34.7679 131.991Z" fill="#1A4F8B"/>
<path id="Shape_12" fill-rule="evenodd" clip-rule="evenodd" d="M34.31 138.508C34.31 138.508 25.7113 134.527 23.9517 138.508C22.1921 142.489 24.1679 147.374 26.1014 150.096C28.0348 152.818 28.0263 186.45 28.0263 186.45L158.44 185.055L159.984 152.716C159.984 152.716 166.238 145.012 165.848 141.692C165.457 138.372 160.179 133.539 154.12 138.495C148.061 143.452 146.488 153.81 146.488 153.81L42.5102 154.595C42.5102 154.595 42.8663 140.047 34.31 138.508Z" fill="#1A4F8B"/>
<path id="Shape_13" fill-rule="evenodd" clip-rule="evenodd" d="M145.169 160.374C145.169 160.488 122.065 160.586 93.5725 160.586C65.0797 160.586 41.976 160.512 41.976 160.374C41.976 160.235 65.0712 160.162 93.5725 160.162C122.074 160.162 145.169 160.276 145.169 160.374Z" fill="#263238"/>
<path id="Shape_14" fill-rule="evenodd" clip-rule="evenodd" d="M41.9759 174.518C41.9704 174.485 41.9704 174.45 41.9759 174.417C41.9759 174.336 41.9759 174.234 41.9759 174.116C41.9759 173.85 41.9674 173.464 41.9505 172.958C41.9505 171.936 41.9505 170.49 41.9505 168.718C41.9505 165.131 41.9759 160.174 41.8105 154.726C41.7782 152.161 41.58 149.6 41.217 147.06C41.1406 146.78 41.0643 146.5 40.9922 146.212C40.9201 145.924 40.7802 145.682 40.67 145.424C40.4453 144.91 40.2163 144.419 39.9661 143.956C39.5145 143.096 38.9836 142.28 38.3804 141.518C37.8767 140.895 37.3082 140.326 36.6844 139.822C36.2106 139.445 35.7007 139.116 35.1622 138.839C34.6931 138.623 34.2133 138.43 33.7249 138.262L33.8224 138.262L34.1149 138.343C34.4891 138.45 34.8525 138.592 35.2004 138.767C35.7542 139.029 36.2774 139.352 36.7607 139.729C37.3977 140.23 37.9778 140.798 38.4906 141.425C39.1105 142.188 39.6557 143.009 40.1188 143.876C40.3774 144.342 40.6106 144.834 40.8396 145.351C40.9541 145.61 41.0601 145.877 41.1661 146.144L41.4077 146.992C41.786 149.544 41.9914 152.117 42.0225 154.696C42.1879 160.166 42.1328 165.123 42.0989 168.71C42.0734 170.486 42.0522 171.932 42.0395 172.95C42.0395 173.437 42.0395 173.823 42.0395 174.107V174.404C41.9759 174.48 41.9759 174.518 41.9759 174.518Z" fill="#263238"/>
<path id="Shape_15" fill-rule="evenodd" clip-rule="evenodd" d="M33.2967 146.013C33.3979 145.944 33.5176 145.907 33.6401 145.907C33.9809 145.881 34.3201 145.975 34.5983 146.174C34.7939 146.311 34.9539 146.493 35.0647 146.704C35.1915 146.952 35.2346 147.235 35.1877 147.51C35.0932 148.157 34.6094 148.68 33.9708 148.824C33.3282 148.916 32.693 148.614 32.3596 148.057C32.2168 147.819 32.1447 147.545 32.1519 147.268C32.1829 146.674 32.5357 146.144 33.0719 145.886C33.1801 145.827 33.301 145.797 33.4239 145.797C33.4239 145.818 33.3009 145.848 33.1101 145.962C32.8434 146.127 32.63 146.366 32.4953 146.649C32.2905 147.053 32.3097 147.534 32.5462 147.921C32.8428 148.396 33.3903 148.653 33.9454 148.578C34.4886 148.451 34.9039 148.012 35.0011 147.463C35.0774 147.011 34.8899 146.556 34.5178 146.288C34.2761 146.096 33.9785 145.987 33.6698 145.979C33.4239 145.992 33.3009 146.034 33.2967 146.013Z" fill="#263238"/>
<path id="Shape_16" fill-rule="evenodd" clip-rule="evenodd" d="M33.886 154.383C33.6388 154.199 33.4371 153.961 33.2966 153.687C32.5083 152.389 32.4888 150.764 33.2458 149.447C33.381 149.17 33.5766 148.927 33.8182 148.735C33.8478 148.76 33.6274 149.027 33.3942 149.519C33.076 150.156 32.9133 150.86 32.9193 151.571C32.9309 152.284 33.1096 152.984 33.4408 153.615C33.6867 154.099 33.9199 154.361 33.886 154.383Z" fill="#263238"/>
<path id="Shape_17" fill-rule="evenodd" clip-rule="evenodd" d="M32.5207 141.794C32.4976 142.009 32.4551 142.222 32.3935 142.43C32.2075 143.445 32.43 144.492 33.0125 145.343C33.1499 145.51 33.276 145.685 33.3899 145.869C33.3899 145.869 33.1525 145.75 32.8853 145.445C32.1874 144.592 31.9414 143.457 32.2239 142.392C32.2713 142.171 32.3734 141.965 32.5207 141.794V141.794Z" fill="#263238"/>
<path id="Shape_18" fill-rule="evenodd" clip-rule="evenodd" d="M29.981 146.483C30.0318 146.441 30.4262 146.84 31.0282 147.149C31.6303 147.459 32.1773 147.573 32.1688 147.624C31.7347 147.68 31.2948 147.581 30.9265 147.344C30.5211 147.176 30.1869 146.871 29.981 146.483Z" fill="#263238"/>
<path id="Shape_19" fill-rule="evenodd" clip-rule="evenodd" d="M158.941 174.62C158.941 174.734 129.528 174.832 93.246 174.832C56.9643 174.832 27.5599 174.734 27.5599 174.62C27.5599 174.506 56.9686 174.408 93.2799 174.408C129.591 174.408 158.941 174.498 158.941 174.62Z" fill="#263238"/>
<path id="Shape_20" fill-rule="evenodd" clip-rule="evenodd" d="M144.817 153.933C144.939 153.933 145.029 158.538 145.029 164.215C145.029 169.893 144.939 174.506 144.817 174.506C144.695 174.506 144.605 169.901 144.605 164.215C144.605 158.529 144.703 153.933 144.817 153.933Z" fill="#263238"/>
<path id="Shape_21" fill-rule="evenodd" clip-rule="evenodd" d="M101.166 118.355H100.963L100.369 118.377L98.0924 118.44L89.7057 118.635L62.0439 119.191C59.3431 119.254 56.7015 119.246 54.166 119.415C51.7244 119.52 49.3089 119.961 46.9877 120.725C44.8937 121.428 43.0199 122.666 41.552 124.317C40.8862 125.062 40.3164 125.889 39.856 126.776C39.4361 127.592 39.0885 128.443 38.8172 129.32C38.3814 130.843 38.0974 132.405 37.9692 133.984C37.8378 135.383 37.825 136.592 37.8166 137.584C37.8081 138.576 37.8166 139.339 37.8462 139.861C37.8462 140.115 37.8462 140.31 37.8462 140.454C37.8462 140.598 37.8462 140.658 37.8462 140.658C37.8462 140.658 37.8462 140.59 37.8462 140.454C37.8462 140.319 37.8462 140.115 37.8123 139.861C37.7869 139.343 37.753 138.589 37.7445 137.584C37.736 136.579 37.7445 135.379 37.859 133.971C37.9838 132.377 38.2679 130.799 38.707 129.261C38.9754 128.368 39.3216 127.502 39.7415 126.67C40.1979 125.765 40.7678 124.921 41.4375 124.16C42.9253 122.484 44.8255 121.227 46.9495 120.513C49.2786 119.736 51.7045 119.286 54.1575 119.178C56.7015 119.008 59.3473 119.013 62.0482 118.949L89.7142 118.457L98.0966 118.334L100.378 118.309H100.971L101.166 118.355Z" fill="#263238"/>
<path id="Shape_22" fill-rule="evenodd" clip-rule="evenodd" d="M67.7806 132.882C67.7806 132.882 67.6406 132.949 67.4244 133.115C67.1187 133.349 66.8899 133.67 66.7672 134.035C66.5662 134.564 66.6545 135.16 67.0004 135.608C67.3931 136.202 68.1152 136.488 68.8081 136.323C69.5009 136.158 70.017 135.578 70.0998 134.87C70.205 134.313 70.0159 133.741 69.5995 133.356C69.3246 133.088 68.9765 132.906 68.5989 132.835C68.3318 132.788 68.1749 132.805 68.1749 132.788C68.3104 132.738 68.4567 132.725 68.5989 132.75C69.3026 132.831 69.9092 133.282 70.1889 133.933C70.3138 134.242 70.3476 134.581 70.2864 134.908C70.1743 135.685 69.5993 136.314 68.8361 136.496C68.0728 136.677 67.2761 136.374 66.8266 135.731C66.6253 135.466 66.5033 135.15 66.4746 134.819C66.4555 134.53 66.5004 134.241 66.6061 133.971C66.7508 133.586 67.0154 133.258 67.3608 133.034C67.4846 132.947 67.6295 132.894 67.7805 132.882L67.7806 132.882Z" fill="#263238"/>
<path id="Shape_23" fill-rule="evenodd" clip-rule="evenodd" d="M65.9955 143.867C65.834 143.459 65.7258 143.031 65.6732 142.595C65.4664 141.56 65.4895 140.492 65.7411 139.466C66.0129 138.427 66.6651 137.528 67.5685 136.948C67.8416 136.779 68.1412 136.657 68.4547 136.587C68.567 136.552 68.6854 136.54 68.8024 136.553C68.3987 136.683 68.0116 136.859 67.6491 137.079C66.8136 137.67 66.2131 138.536 65.9531 139.526C65.7139 140.523 65.6707 141.557 65.8259 142.57C65.9276 143.376 66.0294 143.859 65.9955 143.867Z" fill="#263238"/>
<path id="Shape_24" fill-rule="evenodd" clip-rule="evenodd" d="M67.5389 126.352C67.3137 126.651 67.1056 126.962 66.9156 127.285C66.0247 128.926 66.4913 130.974 68.0053 132.068C68.317 132.278 68.6412 132.469 68.9762 132.64C68.8712 132.639 68.7674 132.618 68.671 132.576C68.404 132.482 68.1503 132.354 67.9162 132.195C66.2533 131.108 65.7491 128.9 66.7757 127.2C66.918 126.955 67.0919 126.73 67.293 126.53C67.4371 126.382 67.5304 126.322 67.5389 126.352Z" fill="#263238"/>
<path id="Shape_25" fill-rule="evenodd" clip-rule="evenodd" d="M67.1488 134.832C66.3739 134.962 65.6067 135.135 64.8508 135.349C64.1187 135.636 63.4025 135.961 62.7053 136.324C63.9306 135.258 65.5285 134.722 67.1488 134.832V134.832Z" fill="#263238"/>
<g id="Group" opacity="0.3">
<path id="Shape_26" fill-rule="evenodd" clip-rule="evenodd" d="M53.4493 160.671C57.5658 163.825 62.6913 165.37 67.8653 165.017C66.7912 170 65.7199 174.985 64.6514 179.971C64.3673 181.298 64.1002 182.778 64.7956 183.948C65.7708 185.589 68.0392 185.75 69.9472 185.725C72.0672 185.695 74.2805 185.644 76.163 184.66C78.83 183.27 80.2631 180.319 81.2977 177.495C82.3322 174.671 83.2269 171.644 85.3553 169.519C87.7987 172.303 91.1059 174.186 94.7469 174.866C95.8069 175.061 97.0111 175.12 97.8591 174.442C98.7071 173.764 98.9488 172.568 98.7325 171.516C98.4504 170.48 97.9805 169.504 97.3461 168.637L91.1387 159.013C90.2907 157.711 89.3833 156.337 87.9629 155.718C86.8478 155.231 85.5843 155.294 84.3717 155.349C74.2374 155.94 64.1788 157.46 54.3227 159.89" fill="black"/>
</g>
<g id="Group_2" opacity="0.3">
<path id="Shape_27" fill-rule="evenodd" clip-rule="evenodd" d="M86.6146 112.954C84.1045 119.585 74.7426 121.107 71.4396 127.37C68.1876 133.577 72.2198 141.786 68.8702 147.959C67.6279 150.24 65.4782 151.94 64.2825 154.238C63.4684 155.782 63.0487 157.63 61.7385 158.771C60.2036 160.107 57.825 160.081 55.9806 159.216C54.1362 158.351 52.72 156.799 51.4056 155.243C48.9464 152.326 46.6356 149.172 45.4696 145.53C43.4938 139.267 45.3085 132.182 49.2856 126.95C53.2628 121.718 59.1521 118.186 65.3722 116.07C71.5923 113.954 78.1728 113.157 84.7151 112.542" fill="black"/>
</g>
<path id="Shape_28" fill-rule="evenodd" clip-rule="evenodd" d="M56.4683 95.5145C57.4185 94.0334 58.7322 92.8204 60.2843 91.991C61.8473 91.1593 63.6746 90.9751 65.3723 91.478C67.0692 92.0164 68.3577 93.408 68.7643 95.1413C69.0314 96.5024 68.6667 98.0203 69.3706 99.216C70.1762 100.59 72.1223 101.022 72.8092 102.464C73.175 103.369 73.0981 104.392 72.6015 105.233C72.1071 106.058 71.4779 106.795 70.7401 107.412C71.1845 107.69 71.5775 108.043 71.9019 108.455C72.2289 108.876 72.3214 109.434 72.1478 109.939C71.8713 110.43 71.4154 110.794 70.8758 110.957C68.507 111.955 65.8884 112.201 63.3752 111.66C62.7053 111.516 61.9379 111.334 61.3867 111.741" fill="#263238"/>
<path id="Shape_29" fill-rule="evenodd" clip-rule="evenodd" d="M73.441 100.547L72.0799 104.698L81.3485 109.96L72.0206 110.261L72.7159 117.821L90.6723 113.411C90.6723 113.411 91.7493 106.089 73.441 100.547L72.169 100.242C71.7033 100.133 71.3213 99.8013 71.1471 99.3559C71.0016 98.9988 70.73 98.7076 70.3839 98.5376L68.8533 97.7404V98.9531L69.7013 99.941L69.5656 102.286C69.4921 103.323 70.1817 104.26 71.1937 104.499L72.0417 104.698" fill="#B78876"/>
<path id="Shape_30" fill-rule="evenodd" clip-rule="evenodd" d="M53.1356 115.557C52.7667 115.557 49.345 116.405 47.3862 118.881C45.4273 121.357 42.595 130.728 42.595 130.728L49.803 131.974L52.9151 139.789C52.9151 139.789 71.3379 137.376 70.3585 136.397C69.4118 135.525 68.4211 134.703 67.3905 133.933L71.6305 119.81L76.7185 117.062L75.0013 110.007L64.7532 111.393L53.1356 115.557Z" fill="#FAFAFA"/>
<path id="Shape_31" fill-rule="evenodd" clip-rule="evenodd" d="M70.7485 123.176C70.7485 123.29 65.0033 123.388 57.9225 123.388C50.8417 123.388 45.0923 123.29 45.0923 123.176C45.0923 123.062 50.8375 122.964 57.9225 122.964C65.0076 122.964 70.7485 123.062 70.7485 123.176Z" fill="#1A4F8B"/>
<path id="Shape_32" fill-rule="evenodd" clip-rule="evenodd" d="M69.5996 127.327C69.5996 127.441 63.8544 127.539 56.7736 127.539C49.6928 127.539 43.9434 127.441 43.9434 127.327C43.9434 127.213 49.6843 127.115 56.7736 127.115C63.8629 127.115 69.5996 127.213 69.5996 127.327Z" fill="#1A4F8B"/>
<path id="Shape_33" fill-rule="evenodd" clip-rule="evenodd" d="M69.5995 131.805C69.5995 131.925 65.2493 132.021 59.8814 132.021C54.5136 132.021 50.1676 131.925 50.1676 131.805C50.1676 131.685 54.5178 131.597 59.8814 131.597C65.245 131.597 69.5995 131.693 69.5995 131.805Z" fill="#1A4F8B"/>
<path id="Shape_34" fill-rule="evenodd" clip-rule="evenodd" d="M71.0878 136.129C71.0878 136.244 66.7376 136.341 61.374 136.341C56.0104 136.341 51.6602 136.244 51.6602 136.129C51.6602 136.015 56.0062 135.917 61.374 135.917C66.7418 135.917 71.0878 136.007 71.0878 136.129Z" fill="#1A4F8B"/>
<path id="Shape_35" fill-rule="evenodd" clip-rule="evenodd" d="M75.6882 117.592C75.6882 117.714 72.8135 117.804 69.2731 117.804C65.7327 117.804 62.8538 117.714 62.8538 117.592C62.8538 117.47 65.7242 117.38 69.2731 117.38C72.822 117.38 75.6882 117.511 75.6882 117.592Z" fill="#1A4F8B"/>
<path id="Shape_36" fill-rule="evenodd" clip-rule="evenodd" d="M76.1545 113.094C76.1545 113.167 73.2925 113.298 69.7649 113.389C66.2372 113.481 63.3667 113.506 63.3667 113.438C63.3667 113.37 66.2245 113.235 69.7564 113.138C73.2883 113.041 76.1545 113.027 76.1545 113.094Z" fill="#1A4F8B"/>
<path id="Shape_37" fill-rule="evenodd" clip-rule="evenodd" d="M51.304 125.228C51.1463 126.398 50.9155 127.556 50.6129 128.697C50.3822 129.855 50.0805 130.997 49.7097 132.118C49.8675 130.949 50.0969 129.791 50.3966 128.65C50.6251 127.491 50.9282 126.348 51.304 125.228V125.228Z" fill="#263238"/>
<path id="Polygon_4" fill-rule="evenodd" clip-rule="evenodd" d="M71.3592 178.169L65.9913 195.099L72.4616 195.752L78.5417 181.039L71.3592 178.169Z" fill="#B78876"/>
<path id="Shape_38" fill-rule="evenodd" clip-rule="evenodd" d="M76.0952 189.163L73.0127 196.795C73.0127 196.795 79.7458 202.498 79.3134 203.965L64.2783 198.534L68.5904 186.424L76.0952 189.163Z" fill="#455A64"/>
<path id="Shape_39" fill-rule="evenodd" clip-rule="evenodd" d="M68.5989 194.472C68.2664 194.454 67.9741 194.69 67.9205 195.019C67.89 195.351 68.1247 195.649 68.4548 195.697C68.8068 195.715 69.1155 195.464 69.1713 195.116C69.1713 194.794 68.8533 194.425 68.5353 194.472" fill="#E0E0E0"/>
<path id="Shape_40" fill-rule="evenodd" clip-rule="evenodd" d="M64.2783 198.534L64.7617 197.33L78.9996 203.003C78.9996 203.003 79.5635 203.533 79.3134 203.978L64.2783 198.534Z" fill="#E0E0E0"/>
<path id="Shape_41" fill-rule="evenodd" clip-rule="evenodd" d="M73.2842 196.821C73.2545 196.893 72.8602 196.795 72.4362 196.897C72.0122 196.999 71.6857 197.245 71.6306 197.19C71.5755 197.135 71.8341 196.766 72.3768 196.634C72.9195 196.503 73.3223 196.757 73.2842 196.821Z" fill="#263238"/>
<path id="Shape_42" fill-rule="evenodd" clip-rule="evenodd" d="M74.624 198.042C74.624 198.122 74.2509 198.131 73.8905 198.351C73.5301 198.572 73.352 198.856 73.2672 198.856C73.1824 198.856 73.2969 198.394 73.7505 198.131C74.2042 197.868 74.6494 197.974 74.624 198.042Z" fill="#263238"/>
<path id="Shape_43" fill-rule="evenodd" clip-rule="evenodd" d="M74.836 200.255C74.7639 200.255 74.7936 199.831 75.1285 199.509C75.4635 199.187 75.8663 199.14 75.8748 199.212C75.8833 199.284 75.5907 199.424 75.3236 199.7C75.0565 199.975 74.9123 200.276 74.836 200.255Z" fill="#263238"/>
<path id="Shape_44" fill-rule="evenodd" clip-rule="evenodd" d="M73.7759 195.002C73.7208 195.057 73.4197 194.832 72.9957 194.709C72.5717 194.586 72.1986 194.603 72.1817 194.527C72.1647 194.451 72.576 194.298 73.0721 194.451C73.5681 194.603 73.848 194.955 73.7759 195.002Z" fill="#263238"/>
<path id="Shape_45" fill-rule="evenodd" clip-rule="evenodd" d="M74.3865 193.446C74.1163 193.422 73.8572 193.327 73.6361 193.17C73.3811 193.024 73.1459 192.846 72.9365 192.64C72.8085 192.522 72.6908 192.393 72.5845 192.254C72.5176 192.177 72.4632 192.09 72.4234 191.996C72.3624 191.853 72.4061 191.687 72.5294 191.593C72.6411 191.516 72.783 191.497 72.911 191.542C73.0069 191.577 73.098 191.624 73.1824 191.682C73.3335 191.779 73.4755 191.89 73.6064 192.013C73.8189 192.22 73.9977 192.458 74.1364 192.721C74.288 192.949 74.3651 193.219 74.3569 193.492C74.3145 193.492 74.2297 193.213 73.971 192.818C73.8209 192.589 73.6413 192.381 73.4368 192.199C73.318 192.089 73.1888 191.991 73.0509 191.907C72.9068 191.809 72.7711 191.758 72.7075 191.813C72.6439 191.868 72.6778 191.847 72.7075 191.902C72.7407 191.971 72.782 192.035 72.8305 192.093C72.9285 192.223 73.0332 192.347 73.1442 192.466C73.3374 192.665 73.5473 192.846 73.7717 193.009C73.9867 193.14 74.1921 193.286 74.3865 193.446H74.3865Z" fill="#263238"/>
<path id="Shape_46" fill-rule="evenodd" clip-rule="evenodd" d="M74.2508 193.518C74.1862 193.25 74.21 192.969 74.3187 192.716C74.4582 192.262 74.7209 191.856 75.0776 191.542C75.2326 191.371 75.4653 191.292 75.6924 191.334C75.8284 191.388 75.922 191.515 75.9341 191.661C75.9416 191.763 75.933 191.866 75.9087 191.966C75.8743 192.143 75.8128 192.313 75.7263 192.471C75.5841 192.738 75.3771 192.965 75.1243 193.132C74.7003 193.416 74.3484 193.395 74.3526 193.365C74.5794 193.25 74.7988 193.121 75.0098 192.979C75.2187 192.81 75.388 192.598 75.5059 192.356C75.572 192.222 75.6205 192.079 75.65 191.932C75.6839 191.767 75.6712 191.614 75.6034 191.61C75.5355 191.606 75.3575 191.656 75.2515 191.762C75.1294 191.865 75.0173 191.978 74.9165 192.102C74.7444 192.315 74.6018 192.55 74.4925 192.801C74.3187 193.217 74.2975 193.522 74.2508 193.518Z" fill="#263238"/>
<path id="Polygon_5" fill-rule="evenodd" clip-rule="evenodd" d="M91.7323 162.231L99.7459 176.159L106.301 171.953L98.2534 157.813L91.7323 162.231Z" fill="#B78876"/>
<path id="Shape_47" fill-rule="evenodd" clip-rule="evenodd" d="M104.037 167.972L108.179 175.112C108.179 175.112 116.812 173.297 117.707 174.54L104.172 183.062L97.2655 172.212L104.037 167.972Z" fill="#455A64"/>
<path id="Shape_48" fill-rule="evenodd" clip-rule="evenodd" d="M103.621 177.151C103.399 177.398 103.399 177.774 103.621 178.021C103.861 178.24 104.229 178.24 104.469 178.021C104.7 177.752 104.691 177.354 104.448 177.096C104.168 176.887 103.773 176.933 103.549 177.202" fill="#E0E0E0"/>
<path id="Shape_49" fill-rule="evenodd" clip-rule="evenodd" d="M104.172 183.053L103.52 181.934L116.74 174.183C116.74 174.183 117.507 174.065 117.707 174.531L104.172 183.053Z" fill="#E0E0E0"/>
<path id="Shape_50" fill-rule="evenodd" clip-rule="evenodd" d="M108.353 174.896C108.391 174.964 108.082 175.201 107.891 175.617C107.7 176.032 107.7 176.422 107.624 176.435C107.548 176.448 107.403 176.011 107.624 175.502C107.844 174.993 108.328 174.824 108.353 174.896Z" fill="#263238"/>
<path id="Shape_51" fill-rule="evenodd" clip-rule="evenodd" d="M110.142 174.586C110.197 174.641 109.981 174.934 109.935 175.358C109.888 175.782 110.007 176.113 109.935 176.151C109.862 176.189 109.591 175.846 109.659 175.303C109.727 174.76 110.1 174.527 110.142 174.586Z" fill="#263238"/>
<path id="Shape_52" fill-rule="evenodd" clip-rule="evenodd" d="M112.021 175.778C111.966 175.833 111.669 175.561 111.597 175.091C111.525 174.62 111.758 174.285 111.821 174.319C111.885 174.353 111.821 174.671 111.868 175.057C111.915 175.443 112.08 175.731 112.021 175.778Z" fill="#263238"/>
<path id="Shape_53" fill-rule="evenodd" clip-rule="evenodd" d="M107.23 173.374C107.23 173.454 106.878 173.552 106.521 173.798C106.165 174.043 105.949 174.357 105.877 174.323C105.805 174.289 105.941 173.874 106.365 173.573C106.789 173.272 107.23 173.301 107.23 173.374Z" fill="#263238"/>
<path id="Shape_54" fill-rule="evenodd" clip-rule="evenodd" d="M106.369 171.953C106.369 171.979 106.153 172.186 105.69 172.377C105.417 172.485 105.133 172.562 104.842 172.606C104.669 172.628 104.495 172.641 104.321 172.644C104.218 172.648 104.115 172.637 104.016 172.61C103.867 172.57 103.764 172.434 103.766 172.28C103.773 172.143 103.845 172.018 103.961 171.945C104.047 171.892 104.139 171.851 104.236 171.822C104.684 171.668 105.165 171.631 105.631 171.716C106.131 171.809 106.394 171.991 106.377 172.017C106.36 172.042 106.081 171.945 105.61 171.906C105.335 171.886 105.059 171.9 104.787 171.949C104.63 171.977 104.476 172.018 104.325 172.072C104.156 172.127 104.033 172.203 104.037 172.288C104.041 172.373 104.037 172.331 104.1 172.356C104.174 172.373 104.25 172.38 104.325 172.377C104.764 172.383 105.202 172.322 105.623 172.195C105.865 172.096 106.115 172.015 106.369 171.953H106.369Z" fill="#263238"/>
<path id="Shape_55" fill-rule="evenodd" clip-rule="evenodd" d="M106.343 172.102C106.343 172.127 106.047 171.97 105.75 171.559C105.58 171.316 105.453 171.044 105.377 170.757C105.331 170.588 105.301 170.415 105.288 170.24C105.249 170.011 105.332 169.778 105.508 169.625C105.63 169.548 105.785 169.548 105.907 169.625C105.992 169.682 106.069 169.751 106.136 169.829C106.252 169.968 106.349 170.122 106.424 170.287C106.545 170.564 106.595 170.867 106.572 171.169C106.53 171.686 106.305 171.94 106.284 171.919C106.331 171.67 106.363 171.418 106.382 171.164C106.376 170.897 106.312 170.633 106.195 170.393C106.128 170.252 106.041 170.122 105.936 170.007C105.826 169.88 105.699 169.795 105.652 169.846C105.567 169.948 105.531 170.083 105.555 170.215C105.562 170.375 105.584 170.533 105.618 170.69C105.681 170.955 105.781 171.211 105.915 171.449C106.144 171.864 106.373 172.068 106.343 172.102Z" fill="#263238"/>
<path id="Shape_56" fill-rule="evenodd" clip-rule="evenodd" d="M67.8782 160.272L83.617 149.57L93.5429 168.892L102.566 164.003C102.566 164.003 92.1734 138.648 88.4422 137.842C86.3518 137.384 62.3789 141.959 62.3789 141.959L59.6992 140.615L52.9152 139.789L52.4912 140.887C50.0966 146.95 50.3706 153.743 53.2459 159.594L53.5766 160.268L67.8782 160.272Z" fill="#263238"/>
<path id="Shape_57" fill-rule="evenodd" clip-rule="evenodd" d="M62.3534 146.882C62.4721 147.412 75.4974 159.602 75.4974 159.602L67.9926 184.826L79.1947 186.967L90.4434 156.583L69.8837 136.413L60.4751 140.344L62.3534 146.882Z" fill="#263238"/>
<path id="Shape_58" fill-rule="evenodd" clip-rule="evenodd" d="M83.617 149.566C83.6509 149.617 80.1529 152.051 75.8112 155.006C71.4694 157.961 67.9163 160.314 67.8781 160.272C67.84 160.23 71.338 157.783 75.684 154.828C80.03 151.873 83.5788 149.515 83.617 149.566Z" fill="#455A64"/>
<path id="Shape_59" fill-rule="evenodd" clip-rule="evenodd" d="M91.6941 165.288C91.5491 165.107 91.4213 164.912 91.3126 164.707C91.0794 164.325 90.7571 163.761 90.3628 163.066C89.5784 161.671 88.5354 159.721 87.4329 157.554C86.3305 155.388 85.3554 153.39 84.6727 151.945C84.3293 151.22 84.0579 150.63 83.8756 150.223C83.7684 150.017 83.6818 149.801 83.6169 149.579C83.7449 149.772 83.8583 149.975 83.9562 150.185L84.8042 151.881C85.5419 153.344 86.5298 155.298 87.6195 157.465C88.7092 159.632 89.7395 161.599 90.49 163.011C90.8504 163.694 91.1514 164.258 91.3804 164.686C91.5004 164.878 91.6053 165.079 91.6942 165.288H91.6941Z" fill="#455A64"/>
<path id="Shape_60" fill-rule="evenodd" clip-rule="evenodd" d="M77.8337 155.091C77.4991 156.021 77.0966 156.925 76.6295 157.796C76.226 158.697 75.757 159.567 75.2261 160.399C75.9624 158.567 76.834 156.793 77.8337 155.091V155.091Z" fill="#455A64"/>
<path id="Shape_61" fill-rule="evenodd" clip-rule="evenodd" d="M42.595 130.728L40.051 140.124C39.7227 141.339 39.8745 142.634 40.475 143.74V143.74C41.5283 145.696 43.7597 146.704 45.9234 146.204L66.0846 141.239L63.9646 137.05L48.0816 138.428L49.7776 131.974L42.595 130.728Z" fill="#B78876"/>
<path id="Polygon_6" fill-rule="evenodd" clip-rule="evenodd" d="M51.5371 144.987L51.8 143.621L62.7265 141.658L65.9022 124.813L86.1949 122.396L82.7859 140.378L51.5371 144.987Z" fill="#455A64"/>
<path id="Shape_62" fill-rule="evenodd" clip-rule="evenodd" d="M75.014 133.886C74.5362 133.866 74.1218 133.55 73.9747 133.095C73.8277 132.64 73.9789 132.141 74.3541 131.845C74.7292 131.548 75.2491 131.516 75.658 131.764C76.0668 132.012 76.2783 132.488 76.1885 132.958C76.1177 133.537 75.5938 133.951 75.014 133.886Z" fill="#EBEBEB"/>
<path id="Shape_63" fill-rule="evenodd" clip-rule="evenodd" d="M54.5051 96.672L54.5433 97.8889L55.0012 116.121C55.0563 118.241 56.9177 119.877 59.1818 119.801C61.4714 119.729 63.3116 117.936 63.2946 115.794C63.2734 113.551 63.2946 111.185 63.2946 111.185C63.2946 111.185 66.1821 110.672 66.7375 106.89C67.0131 105.012 66.8817 101.934 66.6951 99.4195C66.6147 98.3359 66.0953 97.3321 65.2572 96.6405C64.4191 95.9489 63.335 95.6295 62.2558 95.7561L54.5051 96.672Z" fill="#B78876"/>
<path id="Shape_64" fill-rule="evenodd" clip-rule="evenodd" d="M65.2323 101.535C65.2373 101.798 65.0328 102.018 64.7702 102.031C64.6475 102.042 64.5257 102.003 64.4318 101.923C64.3379 101.844 64.2796 101.73 64.2699 101.607C64.2648 101.346 64.4668 101.127 64.7278 101.111C64.9841 101.089 65.2099 101.279 65.2323 101.535Z" fill="#263238"/>
<path id="Shape_65" fill-rule="evenodd" clip-rule="evenodd" d="M66.0464 101.043C65.9871 101.107 65.6224 100.84 65.0967 100.844C64.5709 100.848 64.1978 101.12 64.1384 101.056C64.0791 100.993 64.1724 100.912 64.3377 100.789C64.5609 100.631 64.8273 100.545 65.1009 100.543C65.3719 100.54 65.6371 100.622 65.8599 100.776C66.021 100.912 66.0761 101.014 66.0464 101.043Z" fill="#263238"/>
<path id="Shape_66" fill-rule="evenodd" clip-rule="evenodd" d="M60.0935 101.722C60.1007 101.986 59.895 102.206 59.6314 102.218C59.375 102.24 59.1492 102.05 59.1268 101.794C59.1219 101.532 59.327 101.314 59.589 101.302C59.7116 101.29 59.8339 101.328 59.9287 101.407C60.0234 101.486 60.0828 101.599 60.0935 101.722V101.722Z" fill="#263238"/>
<path id="Shape_67" fill-rule="evenodd" clip-rule="evenodd" d="M60.9288 101.2C60.8694 101.264 60.5048 100.997 59.979 101.001C59.4532 101.005 59.0801 101.277 59.0208 101.213C58.9614 101.149 59.0504 101.069 59.2158 100.946C59.4406 100.788 59.7083 100.702 59.9832 100.7C60.2529 100.697 60.5167 100.779 60.738 100.933C60.8991 101.056 60.9584 101.171 60.9288 101.2Z" fill="#263238"/>
<path id="Shape_68" fill-rule="evenodd" clip-rule="evenodd" d="M62.8622 105.038C63.1371 104.949 63.422 104.895 63.7102 104.876C63.8459 104.876 63.9688 104.834 63.99 104.741C64.0001 104.604 63.9675 104.468 63.8968 104.351L63.494 103.342C63.1184 102.488 62.8121 101.606 62.5781 100.704C63.0234 101.519 63.3993 102.37 63.7017 103.248L64.0918 104.262C64.176 104.422 64.2029 104.606 64.1681 104.783C64.1296 104.879 64.0502 104.952 63.9519 104.982C63.8772 105.003 63.8003 105.014 63.7229 105.016C63.4381 105.061 63.1488 105.068 62.8622 105.038Z" fill="#263238"/>
<path id="Shape_69" fill-rule="evenodd" clip-rule="evenodd" d="M63.2947 111.198C61.5134 111.255 59.7515 110.815 58.2067 109.926C58.2067 109.926 59.4787 112.504 63.2353 112.106L63.2947 111.198Z" fill="#AA6550"/>
<path id="Shape_70" fill-rule="evenodd" clip-rule="evenodd" d="M61.1364 100.34C61.0813 100.48 60.564 100.39 59.9492 100.433C59.3344 100.475 58.8341 100.624 58.7578 100.492C58.7239 100.429 58.8172 100.301 59.0207 100.174C59.293 100.014 59.5999 99.9227 59.9153 99.9071C60.2294 99.8835 60.5447 99.9343 60.8354 100.056C61.0559 100.157 61.1619 100.276 61.1364 100.34Z" fill="#263238"/>
<path id="Shape_71" fill-rule="evenodd" clip-rule="evenodd" d="M65.8302 99.216C65.7369 99.3347 65.3765 99.216 64.9483 99.216C64.5201 99.216 64.1512 99.305 64.0664 99.1821C63.9816 99.0591 64.0664 99.004 64.2402 98.8895C64.6766 98.6075 65.2406 98.6193 65.6649 98.9192C65.8175 99.0549 65.8684 99.1778 65.8302 99.216Z" fill="#263238"/>
<path id="Shape_72" fill-rule="evenodd" clip-rule="evenodd" d="M62.8071 106.924C62.6544 106.949 62.498 106.933 62.3535 106.878L61.9295 106.759C61.8107 106.721 61.6793 106.666 61.5309 106.611C61.3821 106.57 61.2472 106.489 61.1408 106.377C61.0518 106.263 61.0687 106.059 61.2723 105.877C61.5589 105.668 61.9288 105.611 62.2654 105.723C62.6019 105.834 62.8637 106.102 62.9683 106.441C63.0573 106.708 62.9471 106.886 62.8071 106.924Z" fill="#AA6550"/>
<path id="Shape_73" fill-rule="evenodd" clip-rule="evenodd" d="M62.8792 106.878C62.8283 106.916 62.5739 106.394 61.9633 106.237C61.59 106.184 61.2092 106.226 60.8567 106.36C60.8567 106.36 60.9245 106.225 61.1323 106.119C61.4068 105.982 61.7215 105.949 62.0185 106.025C62.3164 106.101 62.577 106.282 62.752 106.534C62.8834 106.725 62.9046 106.869 62.8792 106.878Z" fill="#263238"/>
<path id="Shape_74" fill-rule="evenodd" clip-rule="evenodd" d="M58.8723 94.2213C60.0724 96.1135 59.7879 98.5868 58.1896 100.157C57.2865 101.005 55.9424 101.654 55.8534 102.884C55.7516 104.245 57.3289 105.262 57.3289 106.627C57.3289 107.993 55.7135 108.926 55.3955 110.295C55.1411 111.397 55.8195 112.5 56.5657 113.335C57.312 114.17 58.2617 114.908 58.6857 115.943C59.1406 117.121 59.0946 118.433 58.5585 119.576C58.0219 120.701 57.3059 121.731 56.4385 122.625C55.311 122.221 54.1372 121.961 52.9448 121.849C53.0168 121.4 53.0932 120.946 53.1695 120.497C53.1465 121.036 52.7781 121.498 52.2579 121.641C51.7467 121.771 51.2121 121.779 50.6976 121.663C49.1084 121.411 47.5467 121.01 46.0336 120.463C46.7102 119.853 47.2831 119.137 47.7296 118.343C48.1763 117.527 48.1937 116.544 47.7762 115.714C47.4031 115.078 46.7162 114.671 46.3728 114.018C45.8597 113.043 46.2837 111.805 47.013 110.978C47.7423 110.151 48.7344 109.612 49.6036 108.934C50.4728 108.256 51.27 107.34 51.3378 106.237C51.4311 104.813 50.2736 103.511 50.4177 102.091C50.5788 100.471 52.2918 99.4789 52.9617 97.9949C53.4493 96.9221 53.3857 95.5993 54.132 94.6877C54.7254 94.0282 55.5924 93.6832 56.4767 93.7549C57.3485 93.8306 58.1878 94.122 58.9189 94.6029" fill="#263238"/>
<path id="Shape_75" fill-rule="evenodd" clip-rule="evenodd" d="M63.5999 111.605C62.9215 111.978 62.9597 113.017 63.3752 113.674C63.7907 114.332 64.4564 114.802 64.8677 115.464C65.5857 116.711 65.293 118.295 64.1766 119.203L65.8047 119.818L66.1609 119.619L67.1615 119.051L66.6909 120.208H67.7339C68.8643 120.231 69.9096 119.611 70.43 118.607C70.9503 117.603 70.8552 116.391 70.1846 115.481C69.7606 114.887 69.0907 114.416 68.9423 113.7C68.7685 112.831 69.4257 112.046 69.7437 111.224C70.2629 109.798 69.8039 108.2 68.6074 107.268" fill="#263238"/>
</g>
<g id="speech-bubble--inject-74">
<path id="Shape_76" fill-rule="evenodd" clip-rule="evenodd" d="M31.482 77.2909C31.6769 77.3876 31.8001 77.5864 31.8 77.804V80.6278C31.7997 80.8046 31.7165 80.9709 31.5753 81.0772C31.4347 81.1867 31.2499 81.2214 31.0792 81.1705C30.6088 81.0503 30.1097 81.1268 29.697 81.3825C29.3165 81.5998 29.0432 81.9652 28.9422 82.3916C28.8658 82.825 28.97 83.2708 29.2306 83.6255C29.5012 84.0274 29.9208 84.3051 30.3966 84.3972C31.382 84.4958 32.3044 83.899 32.6183 82.9598C32.6796 82.7674 32.839 82.6223 33.0363 82.5792C33.2336 82.5361 33.4389 82.6016 33.5748 82.7509C33.7108 82.9003 33.7567 83.1108 33.6953 83.3032C33.2087 84.7728 31.7559 85.6976 30.2185 85.5165C29.4344 85.382 28.7399 84.9313 28.2978 84.27C27.8598 83.6564 27.6913 82.8907 27.8314 82.15C27.9962 81.4171 28.4565 80.7849 29.1034 80.4031C29.573 80.1208 30.1116 79.9741 30.6595 79.9791L30.6594 77.804C30.6596 77.49 30.914 77.2357 31.2278 77.2358C31.3156 77.2353 31.4023 77.2541 31.482 77.2909V77.2909Z" fill="#1A4F8B"/>
<path id="Shape_77" fill-rule="evenodd" clip-rule="evenodd" d="M30.7019 76.1037C30.6973 75.8491 30.8995 75.6388 31.1541 75.6334C31.4087 75.628 31.6197 75.8295 31.626 76.0841C31.6322 76.3387 31.4313 76.5504 31.1767 76.5574C31.0534 76.5608 30.9339 76.5148 30.8447 76.4296C30.7555 76.3444 30.7041 76.2271 30.7019 76.1037Z" fill="#1A4F8B"/>
<path id="Shape_78" fill-rule="evenodd" clip-rule="evenodd" d="M44.5201 91.2235C44.5201 91.2235 44.3801 91.2235 44.1469 91.3423C43.8276 91.4798 43.5582 91.7122 43.3753 92.0079C43.2455 92.2103 43.1629 92.4393 43.1336 92.6779C43.1009 92.9516 43.1496 93.2288 43.2735 93.475C43.5334 94.0739 44.1395 94.4469 44.7913 94.409C45.4431 94.3711 46.0019 93.9304 46.1906 93.3054C46.2855 93.0459 46.3018 92.7642 46.2373 92.4956C46.178 92.262 46.0695 92.0437 45.9193 91.8553C45.701 91.5822 45.4055 91.3812 45.0713 91.2787C44.8296 91.2108 44.6854 91.2193 44.6854 91.2066H44.7872C44.8295 91.2029 44.8721 91.2029 44.9144 91.2066C44.9702 91.2098 45.0256 91.2183 45.0797 91.232C45.4387 91.3168 45.7602 91.5163 45.9956 91.8002C46.163 91.9934 46.2834 92.2227 46.3475 92.4701C46.4171 92.7505 46.4039 93.0451 46.3093 93.3181C46.2057 93.6277 46.0178 93.9023 45.7666 94.111C45.499 94.3411 45.1646 94.4793 44.8126 94.5053C44.4606 94.5192 44.1133 94.4213 43.8205 94.2255C43.5455 94.0491 43.3253 93.7994 43.1845 93.5047C43.0585 93.241 43.0099 92.9469 43.0445 92.6567C43.0804 92.4032 43.1732 92.1611 43.3159 91.9486C43.5189 91.6387 43.8162 91.4023 44.1639 91.2744C44.2179 91.2552 44.2732 91.2396 44.3293 91.2278C44.3692 91.2156 44.4105 91.2085 44.4522 91.2066C44.4755 91.2092 44.4983 91.2149 44.5201 91.2235Z" fill="#263238"/>
<path id="Shape_79" fill-rule="evenodd" clip-rule="evenodd" d="M48.6583 95.3236C48.6583 95.3236 48.5692 95.3448 48.4293 95.4084C48.2276 95.4972 48.0576 95.6451 47.9417 95.8324C47.7634 96.1033 47.7408 96.448 47.8823 96.7398C48.0441 97.1085 48.4183 97.3375 48.8202 97.3139C49.2222 97.2903 49.5669 97.0189 49.6843 96.6338C49.7917 96.3274 49.7288 95.987 49.519 95.7392C49.3821 95.5662 49.1957 95.439 48.9847 95.3745C48.8363 95.3279 48.7473 95.3321 48.7473 95.3194C48.8293 95.298 48.9154 95.298 48.9975 95.3194C49.3915 95.4129 49.7035 95.7135 49.8115 96.1038C49.8642 96.2852 49.8642 96.4778 49.8115 96.6592C49.6835 97.0903 49.2993 97.3951 48.8504 97.4217C48.4015 97.4483 47.984 97.1909 47.806 96.778C47.7213 96.6075 47.6902 96.4153 47.717 96.2268C47.7398 96.0656 47.7993 95.9119 47.8908 95.7773C48.0211 95.581 48.2116 95.4323 48.4335 95.3533C48.5054 95.3271 48.5821 95.3169 48.6583 95.3236Z" fill="#263238"/>
<path id="Shape_80" fill-rule="evenodd" clip-rule="evenodd" d="M43.8501 82.8199C43.8501 82.8199 43.8501 82.7478 43.8501 82.6079C43.8501 82.468 43.8501 82.256 43.8501 81.9846C43.8501 81.8447 43.8501 81.692 43.8501 81.5224C43.8501 81.3528 43.8247 81.1705 43.812 80.9712C43.7993 80.772 43.7823 80.5472 43.7611 80.3268C43.7557 80.2083 43.7401 80.0906 43.7145 79.9748L43.6509 79.6017C43.4417 78.3552 43.0458 77.1474 42.4764 76.0189C41.7354 74.5258 40.7149 73.1886 39.4702 72.0799L38.9402 71.6178C38.7537 71.4736 38.5544 71.338 38.3593 71.1938L38.0583 70.9818C37.9636 70.9039 37.8614 70.8357 37.753 70.7783L37.1001 70.384C36.9898 70.3204 36.8838 70.2525 36.7693 70.1932L36.4174 70.032L35.7093 69.7098C35.4634 69.608 35.209 69.5317 34.9589 69.4427L34.5773 69.3112L34.3822 69.2476L34.1829 69.201C33.6477 69.0597 33.1038 68.9535 32.5548 68.883C32.2749 68.8533 31.9909 68.8024 31.7068 68.7855L30.8588 68.76C30.7146 68.76 30.5705 68.76 30.4348 68.76L30.0108 68.794C29.714 68.8194 29.4172 68.8279 29.1246 68.866C28.5249 68.9513 27.9314 69.0759 27.348 69.2392L26.9029 69.3664C26.8308 69.3664 26.7545 69.4045 26.6824 69.43L26.4661 69.5148L25.5927 69.854C25.3086 69.9812 25.0288 70.1338 24.7447 70.278C24.6048 70.3543 24.4606 70.4136 24.3207 70.4984L23.8967 70.7571C23.3472 71.1014 22.8217 71.4824 22.3237 71.8976L21.6071 72.5718L21.4248 72.7414L21.2594 72.928L20.9329 73.3053L20.6022 73.6784L20.3054 74.1024L20.0129 74.5264L19.8645 74.7342C19.8178 74.8063 19.7754 74.8784 19.733 74.9504L19.22 75.8366C19.0801 76.1461 18.9359 76.4556 18.796 76.7694C17.6924 79.3624 17.4676 82.2453 18.1557 84.978L18.4356 85.9702L18.8045 86.92L18.8977 87.1574L19.0122 87.3821L19.2412 87.8358L19.4659 88.281L19.7373 88.705L20.0044 89.129L20.1358 89.3368L20.2885 89.5318L20.8948 90.312C21.3229 90.7988 21.7833 91.2563 22.2728 91.6815L22.6332 91.9995C22.7519 92.1055 22.8876 92.1903 23.0148 92.2836C23.2734 92.4659 23.5236 92.6609 23.7865 92.8305L24.5921 93.28L24.7913 93.3987L25.0033 93.4962L25.4273 93.687C25.9782 93.9382 26.5447 94.1535 27.1234 94.3315C27.4117 94.4163 27.7042 94.4714 27.9713 94.5435L28.3953 94.6452C28.5395 94.6749 28.6837 94.6834 28.8193 94.7046L29.6673 94.8148C29.9514 94.8445 30.2355 94.8148 30.5153 94.8488C31.0701 94.8675 31.6254 94.8477 32.1774 94.7894H32.3809L32.5802 94.7555L32.9788 94.6876C33.2417 94.6368 33.5045 94.6028 33.7589 94.5392L34.5137 94.3315L34.8868 94.2297L35.2429 94.0898L35.9425 93.8184C36.0583 93.7771 36.1703 93.726 36.2775 93.6658L36.6082 93.5004C36.8245 93.3902 37.0322 93.2884 37.2485 93.1739L37.8421 92.7966C39.2532 91.8941 40.4757 90.7263 41.4418 89.3579C41.5478 89.2095 41.6581 89.0654 41.7598 88.9339L42.0227 88.4845L42.2771 88.0605C42.3195 87.9884 42.3619 87.9206 42.4001 87.8485C42.4382 87.7764 42.4637 87.7001 42.4976 87.628L42.8792 86.8055C42.9894 86.5426 43.0657 86.2755 43.1548 86.0338L43.282 85.6734C43.3237 85.5631 43.3563 85.4497 43.3795 85.3342L43.5321 84.7024C43.5745 84.5074 43.6254 84.3293 43.6551 84.1639C43.6848 83.9986 43.6975 83.8459 43.7187 83.7102C43.7526 83.4389 43.7823 83.2354 43.8035 83.0912C43.8247 82.947 43.8374 82.8834 43.8374 82.8834C43.8374 82.8834 43.8374 82.9555 43.8374 83.0954L43.7611 83.7145C43.7611 83.8502 43.7272 84.0028 43.706 84.1682C43.6848 84.3335 43.6297 84.5159 43.5873 84.7109C43.5449 84.9059 43.494 85.1349 43.4431 85.3426C43.4205 85.4597 43.3878 85.5746 43.3456 85.6861C43.3032 85.8048 43.265 85.9235 43.2226 86.0465C43.1336 86.2924 43.0615 86.5595 42.947 86.8267C42.8325 87.0938 42.7011 87.3651 42.5739 87.6747L42.4721 87.8951C42.4382 87.9672 42.3916 88.0393 42.3534 88.1114C42.2686 88.2513 42.1838 88.3997 42.099 88.5354C42.0142 88.6711 41.9252 88.8364 41.8361 88.9933C41.7471 89.1502 41.6241 89.2859 41.5181 89.4385C40.5439 90.7999 39.3158 91.9603 37.9014 92.856L37.3036 93.2376C37.0958 93.352 36.8796 93.458 36.6591 93.5683L36.3326 93.7379C36.2236 93.7973 36.1102 93.8483 35.9934 93.8905L35.2853 94.1661L34.9292 94.306L34.5561 94.412L33.7971 94.624C33.5385 94.6876 33.2713 94.7215 33.0085 94.7724L32.6057 94.8445L32.4064 94.8784H32.1986C31.644 94.9395 31.0858 94.9622 30.5281 94.9463C30.244 94.9463 29.9557 94.9463 29.6801 94.9124L28.8321 94.8021C28.6837 94.8021 28.5395 94.7724 28.4081 94.7385L27.9841 94.641C27.6957 94.5689 27.3989 94.5138 27.1106 94.429C26.5309 94.2523 25.9642 94.0356 25.4146 93.7803L24.9906 93.5895L24.7786 93.492L24.5751 93.3732L23.7568 92.8984C23.4939 92.7288 23.2395 92.5295 22.9809 92.3472C22.8494 92.2496 22.7137 92.1648 22.595 92.0588L22.2304 91.7408C21.7135 91.3121 21.2275 90.8474 20.7761 90.3501L20.1613 89.5657L20.0086 89.3664L19.8729 89.1544L19.6058 88.7304L19.3345 88.3064L19.1055 87.857L18.8723 87.3991L18.7578 87.1701L18.6561 86.92C18.5289 86.602 18.4059 86.2797 18.2829 85.9617C18.16 85.6437 18.0964 85.296 17.9989 84.9611C17.3121 82.2042 17.5428 79.2985 18.6561 76.6846L19.0801 75.7391C19.2539 75.4423 19.4277 75.1455 19.5973 74.8487C19.644 74.7766 19.6821 74.7003 19.7288 74.6282L19.8772 74.4204L20.1782 73.9964L20.475 73.5724L20.81 73.1908L21.1407 72.8135L21.3061 72.6269L21.4884 72.4531L22.2134 71.7704C22.7165 71.3527 23.2477 70.9702 23.8034 70.6256L24.2274 70.367C24.3631 70.2779 24.5115 70.2186 24.6514 70.1423C24.9355 70.0024 25.2153 69.8455 25.4994 69.7183L26.3813 69.3748L26.6018 69.29L26.8223 69.2264L27.2717 69.1035C27.859 68.9386 28.4568 68.8139 29.061 68.7304C29.3621 68.6922 29.6589 68.6795 29.9557 68.654L30.3797 68.6244C30.5238 68.6244 30.6722 68.6244 30.8037 68.6244L31.6771 68.6498C31.9654 68.6498 32.2453 68.7176 32.5251 68.7516C33.0793 68.8202 33.6277 68.9293 34.166 69.078L34.3695 69.1247C34.4331 69.1247 34.4967 69.1671 34.5603 69.1883L34.9461 69.3197C35.2005 69.413 35.4592 69.4851 35.7009 69.5868L36.4641 69.96L36.816 70.1211L37.1509 70.3119L37.8039 70.6935C37.9119 70.7553 38.0153 70.8247 38.1134 70.9012L38.4145 71.1175C38.6095 71.2616 38.813 71.3973 38.9996 71.5415L39.5338 72.0079C40.7891 73.1307 41.8156 74.4855 42.5569 75.9977C43.1266 77.1324 43.5184 78.348 43.7187 79.6017C43.7399 79.7289 43.7611 79.8561 43.7823 79.9748C43.8043 80.0925 43.8184 80.2115 43.8247 80.331C43.8247 80.56 43.8586 80.7762 43.8713 80.9755C43.8841 81.1748 43.901 81.3613 43.9053 81.5309C43.9095 81.7005 43.9053 81.8532 43.9053 81.9931C43.9053 82.2644 43.9053 82.4722 43.9053 82.6164L43.8501 82.8199Z" fill="#263238"/>
</g>
<g id="Sreen--inject-74">
<rect id="Rectangle_4" x="100.81" y="19.9788" width="87.5348" height="132.877" fill="white"/>
<rect id="Rectangle_5" x="100.632" y="26.7458" width="87.5602" height="57.1849" fill="#F5F5F5"/>
<path id="Shape_81" fill-rule="evenodd" clip-rule="evenodd" d="M122.023 92.008V93.28H123.893V93.7379H122.023V95.2473H121.489V91.5161H124.126V92.008H122.023Z" fill="#263238"/>
<path id="Shape_82" fill-rule="evenodd" clip-rule="evenodd" d="M124.448 93.8481C124.438 93.2508 124.79 92.7066 125.339 92.4708C125.887 92.2351 126.524 92.3546 126.95 92.7733C127.377 93.192 127.507 93.8268 127.281 94.3797C127.055 94.9326 126.517 95.2939 125.919 95.2939C125.529 95.3118 125.148 95.1661 124.869 94.8917C124.59 94.6174 124.437 94.2393 124.448 93.8481V93.8481ZM126.869 93.8481C126.846 93.3268 126.408 92.9209 125.887 92.937C125.365 92.953 124.953 93.3851 124.962 93.9069C124.971 94.4286 125.398 94.8463 125.919 94.8445C126.182 94.8512 126.434 94.7467 126.615 94.5569C126.796 94.3671 126.888 94.1096 126.869 93.8481Z" fill="#263238"/>
<path id="Shape_83" fill-rule="evenodd" clip-rule="evenodd" d="M129.617 92.4065V92.9026H129.498C129.246 92.8879 129.001 92.9862 128.829 93.1705C128.657 93.3549 128.576 93.6064 128.608 93.8566L128.608 95.2643H128.095V92.4319H128.586V92.9026C128.809 92.5558 129.207 92.3639 129.617 92.4065V92.4065Z" fill="#263238"/>
<path id="Shape_84" fill-rule="evenodd" clip-rule="evenodd" d="M132.92 92.4319V94.8699C132.92 95.8706 132.415 96.32 131.457 96.32C130.972 96.3413 130.494 96.1912 130.109 95.896L130.35 95.5017C130.661 95.7454 131.045 95.8755 131.44 95.8706C132.106 95.8706 132.411 95.561 132.411 94.9208V94.6961C132.152 94.9817 131.779 95.137 131.393 95.1201C130.887 95.1483 130.406 94.894 130.144 94.4593C129.882 94.0246 129.882 93.4808 130.144 93.046C130.406 92.6113 130.887 92.357 131.393 92.3853C131.795 92.3671 132.182 92.54 132.436 92.8517V92.4277L132.92 92.4319ZM132.419 93.7675C132.386 93.255 131.96 92.8566 131.446 92.8566C130.933 92.8566 130.507 93.255 130.473 93.7675C130.507 94.28 130.933 94.6783 131.446 94.6783C131.96 94.6783 132.386 94.28 132.419 93.7675Z" fill="#263238"/>
<path id="Shape_85" fill-rule="evenodd" clip-rule="evenodd" d="M133.636 93.8481C133.626 93.2508 133.978 92.7066 134.527 92.4708C135.076 92.2351 135.713 92.3546 136.139 92.7733C136.565 93.192 136.695 93.8268 136.469 94.3797C136.243 94.9326 135.705 95.2939 135.108 95.2939C134.717 95.3118 134.336 95.1661 134.057 94.8917C133.778 94.6174 133.625 94.2393 133.636 93.8481V93.8481ZM136.057 93.8481C136.034 93.3268 135.596 92.9209 135.075 92.937C134.553 92.953 134.141 93.3851 134.15 93.9069C134.159 94.4286 134.586 94.8463 135.108 94.8445C135.37 94.8512 135.622 94.7467 135.803 94.5569C135.984 94.3671 136.077 94.1096 136.057 93.8481H136.057Z" fill="#263238"/>
<path id="Shape_86" fill-rule="evenodd" clip-rule="evenodd" d="M138.873 95.0947C138.695 95.2293 138.477 95.2996 138.254 95.2939C138.01 95.3224 137.767 95.2386 137.593 95.0662C137.419 94.8937 137.333 94.6514 137.359 94.4078V92.8559H136.876V92.4319H137.376V91.8129H137.885V92.4319H138.695V92.8559H137.885V94.3866C137.87 94.5076 137.908 94.629 137.989 94.7199C138.071 94.8108 138.187 94.8623 138.309 94.8615C138.453 94.8621 138.593 94.8143 138.707 94.7258L138.873 95.0947Z" fill="#263238"/>
<path id="Shape_87" fill-rule="evenodd" clip-rule="evenodd" d="M143.85 93.8481C143.871 94.2345 143.728 94.6118 143.456 94.887C143.184 95.1623 142.808 95.31 142.422 95.294C142.039 95.3057 141.673 95.134 141.438 94.8318V96.2946H140.925V92.432H141.417V92.8772C141.654 92.5639 142.029 92.3865 142.422 92.4023C142.808 92.3862 143.184 92.534 143.456 92.8092C143.728 93.0845 143.871 93.4617 143.85 93.8481V93.8481ZM143.333 93.8481C143.31 93.3274 142.873 92.9216 142.352 92.9369C141.831 92.9522 141.419 93.3828 141.426 93.904C141.434 94.4252 141.858 94.844 142.379 94.8445C142.642 94.8511 142.895 94.7468 143.076 94.5571C143.258 94.3674 143.351 94.1101 143.333 93.8481Z" fill="#263238"/>
<path id="Shape_88" fill-rule="evenodd" clip-rule="evenodd" d="M146.772 93.5555V95.2515H146.28V94.8784C146.064 95.1699 145.713 95.33 145.351 95.3024C144.711 95.3024 144.308 94.959 144.308 94.4544C144.308 93.9498 144.601 93.6276 145.44 93.6276H146.28V93.5301C146.28 93.1061 146.026 92.8475 145.521 92.8475C145.197 92.8429 144.882 92.9491 144.626 93.1485L144.414 92.7669C144.751 92.5173 145.162 92.3888 145.58 92.4023C146.335 92.4065 146.772 92.7796 146.772 93.5555ZM146.263 94.4035V94.0092H145.474C144.966 94.0092 144.821 94.2085 144.821 94.4332C144.821 94.6579 145.055 94.8911 145.445 94.8911C145.801 94.9254 146.139 94.7247 146.28 94.395L146.263 94.4035Z" fill="#263238"/>
<path id="Shape_89" fill-rule="evenodd" clip-rule="evenodd" d="M147.365 94.9759L147.577 94.5519C147.873 94.743 148.218 94.8446 148.57 94.8445C149.044 94.8445 149.239 94.7003 149.239 94.4629C149.239 93.8269 147.454 94.3781 147.454 93.2503C147.454 92.7457 147.908 92.4023 148.633 92.4023C148.993 92.3963 149.349 92.4856 149.663 92.6609L149.443 93.0637C149.199 92.9108 148.916 92.8327 148.629 92.839C148.179 92.839 147.963 93.0043 147.963 93.2291C147.963 93.8947 149.752 93.352 149.752 94.4502C149.752 94.9632 149.286 95.2982 148.531 95.2982C148.119 95.3112 147.712 95.1988 147.365 94.9759H147.365Z" fill="#263238"/>
<path id="Shape_90" fill-rule="evenodd" clip-rule="evenodd" d="M150.037 94.9759L150.249 94.5519C150.544 94.743 150.889 94.8446 151.241 94.8445C151.716 94.8445 151.911 94.7003 151.911 94.4629C151.911 93.8269 150.126 94.3781 150.126 93.2503C150.126 92.7457 150.579 92.4023 151.304 92.4023C151.665 92.3963 152.02 92.4856 152.335 92.6609L152.114 93.0637C151.871 92.9108 151.588 92.8327 151.3 92.839C150.851 92.839 150.634 93.0043 150.634 93.2291C150.634 93.8947 152.424 93.352 152.424 94.4502C152.424 94.9632 151.957 95.2982 151.203 95.2982C150.79 95.3112 150.384 95.1988 150.037 94.9759H150.037Z" fill="#263238"/>
<path id="Shape_91" fill-rule="evenodd" clip-rule="evenodd" d="M157.304 92.4319L156.248 95.2558H155.756L154.942 93.1358L154.116 95.2558H153.624L152.559 92.4319H153.064L153.887 94.6791L154.735 92.4319H155.159L156.007 94.6919L156.855 92.4319H157.304Z" fill="#263238"/>
<path id="Shape_92" fill-rule="evenodd" clip-rule="evenodd" d="M157.465 93.8481C157.457 93.2533 157.808 92.7121 158.355 92.4781C158.902 92.2441 159.536 92.3636 159.96 92.7805C160.385 93.1975 160.515 93.8294 160.291 94.3803C160.066 94.9313 159.531 95.2921 158.936 95.2939C158.545 95.3118 158.165 95.166 157.886 94.8917C157.606 94.6174 157.454 94.2393 157.465 93.8481H157.465ZM159.882 93.8481C159.856 93.3298 159.42 92.928 158.901 92.9455C158.383 92.9631 157.974 93.3936 157.984 93.9123C157.993 94.4311 158.418 94.8462 158.936 94.8445C159.198 94.8513 159.451 94.7467 159.631 94.5567C159.811 94.3667 159.902 94.1092 159.882 93.8481Z" fill="#263238"/>
<path id="Shape_93" fill-rule="evenodd" clip-rule="evenodd" d="M162.629 92.4065V92.9026H162.511C162.259 92.8879 162.014 92.9861 161.842 93.1705C161.669 93.3549 161.588 93.6064 161.62 93.8566L161.62 95.2643H161.12V92.4319H161.608V92.9026C161.828 92.5587 162.223 92.3672 162.629 92.4065H162.629Z" fill="#263238"/>
<path id="Shape_94" fill-rule="evenodd" clip-rule="evenodd" d="M165.898 91.3041V95.26H165.407V94.8106C165.171 95.1295 164.793 95.3106 164.397 95.2939C163.63 95.2523 163.03 94.6183 163.03 93.8502C163.03 93.0821 163.63 92.4481 164.397 92.4065C164.78 92.3927 165.146 92.561 165.385 92.8602L165.385 91.3041L165.898 91.3041ZM165.39 93.8481C165.366 93.3268 164.929 92.9209 164.407 92.937C163.886 92.953 163.474 93.3851 163.483 93.9068C163.492 94.4286 163.918 94.8463 164.44 94.8445C164.702 94.8512 164.955 94.7467 165.136 94.5569C165.317 94.3671 165.409 94.1096 165.39 93.8481H165.39Z" fill="#263238"/>
<path id="Shape_95" fill-rule="evenodd" clip-rule="evenodd" d="M168.536 92.5125C168.536 92.1733 168.256 91.9401 167.772 91.9401C167.405 91.9198 167.05 92.0776 166.818 92.3641L166.433 92.0885C166.769 91.6789 167.282 91.4564 167.811 91.4907C168.578 91.4907 169.083 91.8468 169.083 92.4404C169.083 93.3308 168.141 93.3859 168.141 94.0856H167.607C167.599 93.246 168.536 93.1273 168.536 92.5125ZM167.522 94.9505C167.542 94.7744 167.691 94.6412 167.868 94.6412C168.045 94.6412 168.194 94.7744 168.213 94.9505C168.194 95.1266 168.045 95.2599 167.868 95.2599C167.691 95.2599 167.542 95.1266 167.522 94.9505Z" fill="#263238"/>
<path id="Shape_96" fill-rule="evenodd" clip-rule="evenodd" d="M179.187 103.019C179.187 103.142 164.185 103.231 145.691 103.231C127.196 103.231 112.195 103.142 112.195 103.019C112.195 102.897 127.191 102.807 145.691 102.807C164.19 102.807 179.187 102.905 179.187 103.019Z" fill="black"/>
<path id="Shape_97" fill-rule="evenodd" clip-rule="evenodd" d="M164.885 106.602C164.885 106.716 156.291 106.814 145.686 106.814C135.082 106.814 126.483 106.716 126.483 106.602C126.483 106.488 135.082 106.39 145.686 106.39C156.291 106.39 164.885 106.455 164.885 106.602Z" fill="black"/>
<path id="Shape_98" fill-rule="evenodd" clip-rule="evenodd" d="M158.83 61.0941C162.728 57.4581 163.173 51.4354 159.852 47.2662C156.53 43.0971 150.56 42.1847 146.145 45.1714C141.73 48.1582 140.356 54.0388 142.99 58.6731L140.912 60.6108L141.412 64.0579L138.186 63.176L135.587 65.6012L136.104 69.0272L132.882 68.124L130.647 70.2059L130.952 72.3259L128.985 71.7747L127.688 72.9873L127.493 76.18L132.254 77.38L147.709 62.964C151.455 64.6292 155.834 63.893 158.83 61.0941ZM157.304 48.5395C158.113 49.4058 158.32 50.6743 157.829 51.7531C157.338 52.8319 156.245 53.5085 155.061 53.4672C153.876 53.426 152.833 52.675 152.418 51.5646C152.003 50.4542 152.298 49.2032 153.166 48.3953C154.349 47.2934 156.201 47.3579 157.304 48.5395Z" fill="#263238"/>
<path id="Shape_99" fill-rule="evenodd" clip-rule="evenodd" d="M157.304 48.5395C157.304 48.5395 157.113 48.3614 156.723 48.1155C156.169 47.784 155.521 47.6426 154.879 47.7127C153.433 47.8687 152.343 49.0982 152.362 50.5521C152.38 52.0059 153.501 53.2072 154.951 53.3261C156.4 53.4451 157.701 52.4427 157.957 51.0114C158.075 50.3762 157.978 49.7198 157.681 49.1458C157.469 48.7218 157.283 48.5522 157.304 48.5352C157.325 48.5183 157.359 48.5734 157.444 48.6624C157.569 48.7908 157.678 48.9331 157.77 49.0864C158.115 49.6712 158.244 50.3583 158.135 51.0284C158.007 51.8337 157.558 52.5529 156.891 53.0219C156.224 53.4908 155.396 53.6695 154.595 53.5172C153.283 53.2768 152.284 52.2052 152.135 50.88C152.039 50.0708 152.275 49.2572 152.789 48.6245C153.302 47.9919 154.05 47.5941 154.862 47.5219C155.539 47.4593 156.218 47.6364 156.778 48.0222C156.933 48.1218 157.076 48.24 157.202 48.3741C157.304 48.4844 157.329 48.5352 157.304 48.5395Z" fill="#263238"/>
<path id="Shape_100" fill-rule="evenodd" clip-rule="evenodd" d="M158.83 61.0941C158.83 61.0941 158.784 61.145 158.682 61.234L158.233 61.658C157.623 62.1542 156.961 62.5808 156.257 62.93C153.545 64.2288 150.401 64.2737 147.654 63.053H147.739L132.309 77.4944L132.267 77.5411H132.203L127.442 76.3454L127.344 76.3242V76.2224C127.403 75.226 127.467 74.1363 127.535 73.0297V72.9279L127.569 72.894L128.896 71.6559L128.943 71.6093H129.01L130.978 72.1605L130.821 72.2962C130.723 71.639 130.622 70.9182 130.516 70.1762V70.1126L130.562 70.0702L132.797 67.9841L132.848 67.9332H132.915L136.138 68.8363L135.981 68.9763C135.824 67.8823 135.655 66.7121 135.485 65.5291V65.4613L135.536 65.4189L136.223 64.7744L138.135 62.9936L138.186 62.9427H138.254L141.48 63.8459L141.319 63.9858C141.152 62.824 140.987 61.675 140.823 60.5387V60.4751L140.87 60.4284L142.947 58.4907L142.926 58.6434C142.122 57.2151 141.667 55.6169 141.599 53.9794C141.559 53.1882 141.616 52.3951 141.769 51.6177C141.907 50.8532 142.135 50.1076 142.447 49.3959C144.053 45.721 147.645 43.3117 151.655 43.2207C155.664 43.1298 159.362 45.3736 161.133 48.9719C161.946 50.6347 162.293 52.4868 162.138 54.3313C162.03 55.7062 161.64 57.0442 160.993 58.2618C160.929 58.389 160.866 58.5077 160.802 58.6264L160.594 58.9487C160.454 59.1564 160.34 59.3727 160.204 59.5295C159.928 59.8603 159.716 60.1571 159.509 60.3775L159 60.9415L158.835 61.0941C158.835 61.0941 158.881 61.0347 158.983 60.9245L159.441 60.4369C159.64 60.2249 159.865 59.9239 160.115 59.5889C160.242 59.4151 160.353 59.2115 160.488 59.008C160.556 58.902 160.624 58.796 160.692 58.6815L160.878 58.3211C162.584 55.0398 162.364 51.0896 160.305 48.0179C158.245 44.9462 154.675 43.2422 150.992 43.5733C147.308 43.9045 144.099 46.2182 142.621 49.6079C142.319 50.304 142.097 51.0324 141.959 51.7788C141.814 52.5386 141.76 53.3129 141.798 54.0854C141.871 55.6787 142.317 57.2328 143.1 58.6222L143.147 58.707L143.075 58.7748L141.001 60.7125L141.039 60.6023C141.203 61.7329 141.369 62.8834 141.535 64.0536L141.565 64.2444L141.374 64.1935L138.152 63.2904L138.275 63.2607L136.363 65.0415L135.68 65.6733L135.718 65.5588C135.888 66.7418 136.057 67.9163 136.214 69.0059L136.244 69.201L136.053 69.1501L132.831 68.2427L132.949 68.2131C132.182 68.9339 131.419 69.6419 130.715 70.2991L130.757 70.1889C130.859 70.9139 130.961 71.6347 131.058 72.3089L131.084 72.4955L130.901 72.4446L128.938 71.8934L129.053 71.8637L127.751 73.0763L127.789 72.9958C127.721 74.1024 127.654 75.1921 127.594 76.1885L127.505 76.0655L132.267 77.2655L132.161 77.2951L147.637 62.9046L147.675 62.8707H147.722C150.43 64.0896 153.536 64.0679 156.227 62.8113C156.929 62.477 157.594 62.0706 158.211 61.5987L158.673 61.2128L158.83 61.0941Z" fill="#263238"/>
<path id="Shape_101" fill-rule="evenodd" clip-rule="evenodd" d="M158.487 59.9366C162.383 56.3028 162.828 50.2835 159.51 46.1158C156.191 41.9481 150.225 41.0345 145.811 44.0179C141.397 47.0014 140.021 52.8781 142.651 57.5113L140.577 59.4447L141.073 62.8961L137.851 61.9887L135.256 64.4183L135.752 67.8654L132.53 66.9623L130.295 69.0483L130.596 71.1683L128.633 70.6214L127.331 71.834L127.136 75.0267L131.898 76.2224L147.353 61.8064C151.102 63.4809 155.49 62.744 158.487 59.9366H158.487ZM156.977 47.3819C157.787 48.2483 157.994 49.5167 157.503 50.5956C157.012 51.6744 155.919 52.351 154.734 52.3097C153.55 52.2684 152.507 51.5174 152.092 50.4071C151.677 49.2967 151.972 48.0457 152.839 47.2378C153.407 46.7076 154.162 46.4248 154.938 46.4518C155.715 46.4789 156.448 46.8135 156.977 47.3819Z" fill="#1A4F8B"/>
<path id="Shape_102" fill-rule="evenodd" clip-rule="evenodd" d="M156.977 47.3819C156.977 47.3819 156.787 47.2039 156.397 46.9579C155.848 46.6156 155.2 46.4664 154.556 46.5339C153.115 46.6924 152.029 47.9202 152.049 49.3703C152.069 50.8205 153.186 52.0186 154.632 52.1382C156.077 52.2578 157.377 51.2599 157.635 49.8327C157.752 49.197 157.653 48.5405 157.355 47.9671C157.143 47.5431 156.96 47.3735 156.977 47.3565C156.994 47.3395 157.033 47.3947 157.122 47.4837C157.245 47.6124 157.353 47.7546 157.444 47.9077C157.79 48.4936 157.919 49.1825 157.808 49.8539C157.679 50.6578 157.231 51.3755 156.565 51.8441C155.9 52.3127 155.073 52.4925 154.272 52.3427C152.961 52.1152 151.954 51.056 151.792 49.7351C151.698 48.9264 151.935 48.1141 152.448 47.482C152.961 46.85 153.708 46.4516 154.518 46.3771C155.196 46.3154 155.875 46.4939 156.435 46.8816C156.591 46.98 156.733 47.0983 156.859 47.2335C156.948 47.3268 156.986 47.3777 156.977 47.3819Z" fill="#263238"/>
<path id="Shape_103" fill-rule="evenodd" clip-rule="evenodd" d="M158.487 59.9366C158.487 59.9366 158.44 59.9875 158.343 60.0765L157.893 60.4751C157.283 60.9699 156.621 61.3964 155.918 61.7471C153.205 63.0454 150.059 63.0904 147.31 61.87L147.395 61.87L131.97 76.3115L131.923 76.3539H131.864L127.098 75.1582L127.005 75.1327V75.0352C127.064 74.0388 127.132 72.9491 127.196 71.8425V71.7916L127.23 71.7619L128.531 70.5451L128.582 70.4984H128.65L130.613 71.0454L130.456 71.1853C130.363 70.5281 130.257 69.8073 130.151 69.0653V69.0017L130.202 68.9551L132.432 66.8732L132.483 66.8224L132.555 66.8436L135.778 67.7467L135.616 67.8866L135.12 64.4479V64.3801L135.167 64.3335L135.858 63.6932L137.766 61.9124L137.817 61.8616L137.889 61.8828L141.111 62.7859L140.95 62.9258C140.784 61.764 140.618 60.615 140.454 59.4787V59.4108L140.505 59.3684L142.583 57.4307L142.557 57.5834C141.753 56.1551 141.299 54.557 141.23 52.9194C141.193 52.1282 141.25 51.3354 141.4 50.5577C141.539 49.7934 141.767 49.0479 142.078 48.336C144.071 43.7033 149.129 41.1996 154.021 42.4247C158.913 43.6498 162.195 48.242 161.769 53.2671C161.661 54.6418 161.271 55.9797 160.624 57.1975L160.433 57.5622L160.225 57.8844C160.085 58.0922 159.971 58.3084 159.84 58.4653C159.564 58.796 159.352 59.0928 159.144 59.3133L158.652 59.7839C158.546 59.8899 158.487 59.9408 158.487 59.9408C158.487 59.9408 158.538 59.8772 158.64 59.767L159.093 59.2836C159.293 59.0716 159.517 58.7706 159.767 58.4356C159.895 58.266 160.009 58.0625 160.145 57.8547L160.348 57.5325L160.531 57.1679C161.157 55.957 161.531 54.6312 161.629 53.2713C162.001 48.3549 158.774 43.8863 153.991 42.6925C149.207 41.4986 144.259 43.9272 142.277 48.442C141.976 49.1382 141.756 49.8665 141.62 50.6128C141.473 51.3723 141.419 52.1468 141.459 52.9194C141.53 54.5124 141.975 56.0664 142.757 57.4562L142.807 57.541L142.735 57.6088L140.658 59.5465L140.696 59.4363C140.863 60.5669 141.028 61.716 141.192 62.8834L141.222 63.0784L141.035 63.0233L137.8 62.1159L137.919 62.0863L136.011 63.8713L135.32 64.5115L135.358 64.4013C135.532 65.5843 135.697 66.7545 135.854 67.8484L135.884 68.0435L135.697 67.9883L132.47 67.0852L132.593 67.0555L130.359 69.1374L130.397 69.0314C130.499 69.7564 130.605 70.473 130.698 71.1302L130.723 71.321L130.541 71.2701L128.578 70.7189L128.693 70.6892L127.395 71.9019L127.433 71.8171C127.365 72.9237 127.298 74.0176 127.234 75.0098L127.145 74.8868L131.906 76.091L131.8 76.1207L147.276 61.7301L147.315 61.6962L147.361 61.7174C150.071 62.9301 153.174 62.9084 155.867 61.658C156.569 61.323 157.236 60.9166 157.855 60.4454L158.313 60.0595L158.487 59.9366Z" fill="#263238"/>
<path id="Shape_104" fill-rule="evenodd" clip-rule="evenodd" d="M157.55 59.1395C158.053 58.6005 158.513 58.022 158.924 57.4095C159.389 56.6836 159.742 55.8917 159.971 55.0606C160.284 53.959 160.384 52.8076 160.263 51.6686C160.124 50.2922 159.664 48.9677 158.919 47.8017C158.062 46.4668 156.865 45.3839 155.451 44.6641C154.694 44.2698 153.88 43.9952 153.038 43.85C152.606 43.7692 152.168 43.7182 151.728 43.6974C151.279 43.6905 150.83 43.7131 150.384 43.7652C146.539 44.2063 143.431 47.1043 142.723 50.9096C142.639 51.3508 142.586 51.797 142.561 52.2452C142.553 52.6857 142.574 53.1263 142.625 53.5639C142.71 54.4135 142.928 55.2446 143.27 56.0273C143.889 57.4885 144.887 58.7576 146.161 59.7034C147.27 60.5292 148.559 61.0813 149.922 61.3146C151.046 61.5138 152.197 61.495 153.314 61.2595C154.159 61.086 154.974 60.7873 155.731 60.3733C156.37 60.008 156.978 59.5911 157.55 59.1267C157.55 59.1267 157.52 59.1649 157.448 59.2285L157.13 59.5168C156.96 59.673 156.777 59.8148 156.583 59.9408C156.328 60.1337 156.059 60.3067 155.778 60.4581C155.019 60.8927 154.198 61.2087 153.344 61.3951C149.09 62.3453 144.763 60.1259 143.053 56.1163C142.7 55.3082 142.474 54.4499 142.383 53.5723C142.262 52.6766 142.289 51.7669 142.464 50.8799C143.187 46.9639 146.385 43.9809 150.342 43.532C151.25 43.4152 152.17 43.4467 153.068 43.6253C153.932 43.7805 154.767 44.0664 155.544 44.4733C156.992 45.2162 158.215 46.3332 159.085 47.7084C160.474 49.9173 160.848 52.6166 160.111 55.1199C159.866 55.961 159.493 56.7591 159.004 57.4859C158.836 57.7555 158.646 58.0108 158.436 58.2491C158.295 58.4339 158.139 58.6069 157.97 58.7663L157.66 59.0631C157.592 59.1098 157.554 59.1437 157.55 59.1395Z" fill="#263238"/>
<path id="Shape_105" fill-rule="evenodd" clip-rule="evenodd" d="M157.139 51.8933C157.117 51.8933 157.351 51.6728 157.635 51.2191C158.034 50.5716 158.204 49.8085 158.118 49.0525C157.999 47.9269 157.313 46.9403 156.299 46.4364C155.716 46.1382 155.058 46.0215 154.408 46.1015C153.374 46.2262 152.458 46.8291 151.935 47.7298C151.412 48.6306 151.341 49.7247 151.745 50.6849C151.979 51.2299 152.35 51.7048 152.822 52.0629C153.238 52.3728 153.72 52.5831 154.23 52.6777C154.979 52.8158 155.753 52.6978 156.426 52.3427C156.901 52.0926 157.117 51.8721 157.139 51.8933C157.16 51.9145 157.092 51.9569 156.986 52.0544C156.831 52.2012 156.659 52.328 156.473 52.4318C155.287 53.1188 153.807 53.0406 152.699 52.2325C151.593 51.4319 151.047 50.0642 151.3 48.7218C151.581 47.1915 152.832 46.0266 154.378 45.8555C155.077 45.7711 155.785 45.8997 156.409 46.2244C156.973 46.5182 157.447 46.9574 157.783 47.4964C158.507 48.6586 158.482 50.137 157.719 51.2743C157.598 51.4519 157.456 51.6142 157.295 51.7576C157.202 51.8551 157.143 51.9018 157.139 51.8933Z" fill="#263238"/>
<path id="Shape_106" fill-rule="evenodd" clip-rule="evenodd" d="M130.643 75.6373C130.596 75.5864 134.073 72.2453 138.415 68.2131C142.757 64.1808 146.314 60.9245 146.361 60.9754C146.407 61.0263 142.93 64.3674 138.589 68.3996C134.247 72.4319 130.69 75.6882 130.643 75.6373Z" fill="#263238"/>
<path id="Shape_107" fill-rule="evenodd" clip-rule="evenodd" d="M132.559 55.404L132.703 55.0903L132.89 55.3786C133.042 55.6089 133.257 55.7912 133.509 55.9043L133.827 56.0443L133.539 56.2351C133.306 56.3863 133.122 56.6012 133.009 56.8541L132.869 57.1679L132.678 56.8796C132.526 56.6486 132.311 56.4661 132.059 56.3538L131.745 56.2139L132.034 56.0231C132.266 55.8729 132.449 55.6575 132.559 55.404V55.404Z" fill="#1A4F8B"/>
<path id="Shape_108" fill-rule="evenodd" clip-rule="evenodd" d="M123.1 53.0466L123.18 52.8643L123.291 53.0296C123.378 53.1648 123.503 53.271 123.651 53.3349L123.833 53.4197L123.664 53.5299C123.531 53.6176 123.425 53.741 123.359 53.8861L123.278 54.0727L123.168 53.9031C123.08 53.7679 122.955 53.6617 122.807 53.5978L122.625 53.513L122.79 53.407C122.925 53.3176 123.032 53.1929 123.1 53.0466V53.0466Z" fill="#1A4F8B"/>
<path id="Shape_109" fill-rule="evenodd" clip-rule="evenodd" d="M152.894 69.1713L152.975 68.989L153.085 69.1586C153.176 69.2906 153.3 69.396 153.446 69.4639L153.628 69.5444L153.462 69.6547C153.327 69.742 153.221 69.8674 153.157 70.0151L153.072 70.1974L152.962 70.032C152.875 69.8972 152.752 69.7899 152.606 69.7225L152.419 69.6419L152.589 69.5317C152.724 69.4444 152.83 69.319 152.894 69.1713Z" fill="#1A4F8B"/>
<path id="Shape_110" fill-rule="evenodd" clip-rule="evenodd" d="M167.48 60.9033L167.62 60.5895L167.811 60.8779C167.962 61.109 168.177 61.2915 168.43 61.4036L168.743 61.5435L168.455 61.7343C168.224 61.8857 168.041 62.1006 167.929 62.3534L167.785 62.6671L167.599 62.3788C167.445 62.1496 167.231 61.9675 166.98 61.8531L166.662 61.7131L166.95 61.5223C167.182 61.3711 167.366 61.1562 167.48 60.9033Z" fill="#1A4F8B"/>
<path id="Shape_111" fill-rule="evenodd" clip-rule="evenodd" d="M165.585 49.3196L165.822 48.7896L166.14 49.2772C166.396 49.6649 166.756 49.9722 167.179 50.1634L167.709 50.3966L167.221 50.7146C166.834 50.9726 166.527 51.3339 166.335 51.7576L166.098 52.2876L165.78 51.8C165.524 51.4123 165.164 51.1051 164.741 50.9139L164.211 50.6764L164.699 50.3584C165.086 50.1029 165.393 49.7427 165.585 49.3196V49.3196Z" fill="#1A4F8B"/>
<path id="Shape_112" fill-rule="evenodd" clip-rule="evenodd" d="M129.621 45.7495L129.858 45.2195L130.176 45.7029C130.431 46.0917 130.791 46.3993 131.215 46.5891L131.745 46.8265L131.262 47.1445C130.872 47.3975 130.564 47.7584 130.376 48.1833L130.138 48.7133L129.82 48.2299C129.565 47.8401 129.203 47.5323 128.777 47.3438L128.251 47.1063L128.735 46.7883C129.124 46.5341 129.431 46.1735 129.621 45.7495V45.7495Z" fill="#1A4F8B"/>
<path id="Shape_113" fill-rule="evenodd" clip-rule="evenodd" d="M174.637 126.483C174.637 126.483 174.773 126.483 175.036 126.449C175.201 126.447 175.366 126.428 175.527 126.394L175.837 126.343L176.189 126.25C176.805 126.091 177.389 125.831 177.919 125.478C179.082 124.717 179.95 123.58 180.378 122.256C180.549 121.715 180.643 121.153 180.658 120.586C180.658 120.289 180.658 119.979 180.658 119.674L180.632 119.208C180.632 119.051 180.586 118.894 180.56 118.737C180.437 118.081 180.21 117.45 179.886 116.867C179.153 115.569 177.963 114.59 176.549 114.12C175.781 113.874 174.976 113.768 174.171 113.806H171.601L116.74 113.84C115.421 113.841 114.139 114.277 113.093 115.082C112.583 115.481 112.137 115.955 111.771 116.49C111.414 117.026 111.147 117.616 110.978 118.237C110.894 118.545 110.833 118.86 110.795 119.178C110.795 119.496 110.753 119.814 110.761 120.14C110.743 120.776 110.82 121.41 110.99 122.023C111.165 122.624 111.43 123.196 111.775 123.719C112.131 124.232 112.559 124.69 113.047 125.08C113.532 125.465 114.076 125.77 114.658 125.983C114.944 126.09 115.237 126.176 115.536 126.242C115.837 126.298 116.141 126.333 116.447 126.348C117.673 126.377 118.911 126.348 120.123 126.348H127.251L151.915 126.369L168.544 126.407L173.064 126.428H174.243H174.641C174.641 126.428 174.506 126.428 174.243 126.428H173.064L168.544 126.449L151.915 126.483L127.251 126.509H120.119C118.902 126.509 117.681 126.509 116.43 126.509C116.115 126.494 115.8 126.459 115.489 126.403C115.179 126.334 114.875 126.243 114.577 126.131C113.975 125.912 113.413 125.597 112.911 125.199C111.883 124.394 111.14 123.281 110.791 122.023C110.617 121.391 110.537 120.736 110.554 120.081C110.554 119.759 110.554 119.424 110.588 119.097C110.628 118.768 110.692 118.442 110.778 118.122C110.955 117.477 111.232 116.865 111.601 116.307C111.98 115.752 112.443 115.26 112.975 114.849C114.059 114.02 115.387 113.573 116.753 113.577L171.614 113.606H174.183C175.005 113.574 175.825 113.685 176.609 113.933C178.048 114.423 179.256 115.427 180.001 116.753C180.33 117.349 180.561 117.995 180.683 118.665L180.755 119.144C180.755 119.305 180.755 119.462 180.755 119.619C180.755 119.933 180.755 120.234 180.755 120.539C180.737 121.115 180.638 121.686 180.463 122.235C180.297 122.73 180.07 123.203 179.789 123.643C179.317 124.383 178.689 125.011 177.948 125.483C177.409 125.832 176.816 126.09 176.193 126.246L175.837 126.331L175.523 126.377C175.361 126.407 175.196 126.422 175.031 126.424L174.637 126.483Z" fill="#263238"/>
<path id="Rectangle_6" fill-rule="evenodd" clip-rule="evenodd" d="M110.651 135.585V135.294C110.651 133.614 111.245 132.18 112.433 130.992C113.621 129.804 115.055 129.21 116.736 129.21H174.637C176.317 129.21 177.751 129.804 178.939 130.992C180.127 132.18 180.721 133.614 180.721 135.294L180.721 135.585L180.721 135.875C180.721 137.555 180.127 138.989 178.939 140.177C177.751 141.365 176.317 141.959 174.637 141.959H116.736C115.055 141.959 113.621 141.365 112.433 140.177C111.245 138.989 110.651 137.555 110.651 135.875V135.585Z" fill="#1A4F8B"/>
<path id="Shape_114" fill-rule="evenodd" clip-rule="evenodd" d="M124.72 122.65C124.711 122.525 124.711 122.399 124.72 122.273C124.72 122.01 124.72 121.667 124.698 121.243C124.698 120.335 124.673 119.08 124.652 117.567L124.741 117.651L117.164 117.677L117.274 117.567V118.898C117.274 119.322 117.274 119.771 117.274 120.195C117.274 121.043 117.274 121.866 117.274 122.642L117.172 122.54L122.604 122.591L124.173 122.616H124.597H124.749C124.572 122.637 124.393 122.645 124.215 122.642L122.667 122.667L117.155 122.718H117.024V122.616C117.024 121.841 117.024 121.022 117.024 120.17C117.024 119.746 117.024 119.322 117.024 118.873V117.575C116.926 117.673 117.16 117.439 117.134 117.461L124.711 117.486H124.8V117.575C124.779 119.114 124.762 120.386 124.754 121.306C124.754 121.73 124.754 122.061 124.728 122.32C124.733 122.43 124.73 122.54 124.72 122.65Z" fill="#263238"/>
<path id="Shape_115" fill-rule="evenodd" clip-rule="evenodd" d="M124.719 117.567C124.392 117.931 124.037 118.271 123.659 118.584C122.99 119.195 122.048 120.022 121.005 120.929H120.84L120.814 120.908L120.764 120.865L120.666 120.781L120.475 120.615L120.102 120.289L119.394 119.665L118.207 118.605C117.829 118.293 117.475 117.953 117.147 117.588C117.552 117.85 117.936 118.144 118.296 118.466L119.513 119.492L120.229 120.102L120.607 120.424L120.802 120.594L120.895 120.679L120.946 120.717L120.971 120.738H120.84C121.887 119.835 122.841 119.042 123.541 118.444C123.91 118.121 124.304 117.828 124.72 117.567H124.719Z" fill="#263238"/>
<path id="Shape_116" fill-rule="evenodd" clip-rule="evenodd" d="M119.878 119.933C119.511 120.46 119.084 120.942 118.606 121.37C118.173 121.847 117.688 122.274 117.16 122.642C117.529 122.117 117.955 121.635 118.432 121.205C118.865 120.729 119.35 120.302 119.878 119.933Z" fill="#263238"/>
<path id="Shape_117" fill-rule="evenodd" clip-rule="evenodd" d="M124.72 122.65C124.214 122.25 123.758 121.792 123.359 121.285C122.905 120.828 122.504 120.322 122.163 119.776C122.667 120.178 123.123 120.636 123.524 121.141C123.979 121.597 124.38 122.103 124.72 122.65H124.72Z" fill="#263238"/>
<path id="Shape_118" fill-rule="evenodd" clip-rule="evenodd" d="M129.295 121.124V121.294H127.535V118.75H129.231V118.919H127.713V119.924H129.07V120.089H127.713V121.133L129.295 121.124Z" fill="#263238"/>
<path id="Shape_119" fill-rule="evenodd" clip-rule="evenodd" d="M133.038 120.183V121.294H132.856V120.195C132.856 119.771 132.631 119.538 132.263 119.538C132.067 119.53 131.878 119.607 131.744 119.749C131.611 119.892 131.546 120.086 131.567 120.28V121.294H131.385V120.195C131.385 119.771 131.16 119.538 130.791 119.538C130.596 119.53 130.407 119.607 130.273 119.749C130.139 119.892 130.075 120.086 130.096 120.28V121.294H129.914V119.39H130.087V119.814C130.221 119.537 130.51 119.37 130.817 119.39C131.126 119.364 131.413 119.553 131.512 119.848C131.651 119.553 131.954 119.372 132.28 119.39C132.491 119.375 132.699 119.454 132.845 119.608C132.992 119.761 133.063 119.972 133.038 120.183Z" fill="#263238"/>
<path id="Shape_120" fill-rule="evenodd" clip-rule="evenodd" d="M135.158 120.085V121.294H134.985V120.954C134.839 121.191 134.575 121.327 134.298 121.306C133.874 121.306 133.615 121.09 133.615 120.764C133.615 120.437 133.797 120.234 134.323 120.234H134.976V120.081C134.992 119.929 134.937 119.778 134.827 119.672C134.717 119.566 134.564 119.517 134.412 119.538C134.172 119.536 133.938 119.62 133.755 119.776L133.666 119.644C133.879 119.468 134.148 119.373 134.425 119.377C134.622 119.348 134.822 119.413 134.965 119.551C135.109 119.69 135.18 119.887 135.158 120.085H135.158ZM134.976 120.73V120.374H134.327C133.933 120.374 133.797 120.539 133.797 120.755C133.797 120.971 133.988 121.158 134.323 121.158C134.612 121.175 134.877 121.001 134.976 120.73H134.976Z" fill="#263238"/>
<path id="Shape_121" fill-rule="evenodd" clip-rule="evenodd" d="M135.849 118.847C135.849 118.791 135.872 118.737 135.912 118.697C135.951 118.657 136.005 118.635 136.061 118.635C136.179 118.635 136.273 118.73 136.273 118.847C136.273 118.964 136.179 119.059 136.062 119.059C135.944 119.059 135.85 118.964 135.849 118.847ZM135.905 119.39H136.329V121.294H135.941L135.905 119.39Z" fill="#263238"/>
<path id="Shape_122" fill-rule="evenodd" clip-rule="evenodd" d="M136.854 118.589H137.278V121.294H136.854V118.589Z" fill="#263238"/>
<path id="Shape_123" fill-rule="evenodd" clip-rule="evenodd" d="M131.724 137.295L131.037 136.333C130.944 136.339 130.851 136.339 130.757 136.333H129.935V137.274H129.744V134.408H130.774C131.495 134.408 131.932 134.768 131.932 135.379C131.952 135.801 131.669 136.179 131.258 136.278L131.979 137.283L131.724 137.295ZM130.757 136.172C131.372 136.172 131.703 135.883 131.703 135.392C131.703 134.9 131.372 134.607 130.757 134.607H129.935V136.172H130.757Z" fill="white"/>
<path id="Shape_124" fill-rule="evenodd" clip-rule="evenodd" d="M134.429 136.274H132.585C132.584 136.509 132.682 136.734 132.854 136.895C133.026 137.056 133.257 137.138 133.492 137.122C133.754 137.131 134.006 137.022 134.179 136.825L134.298 136.96C134.094 137.193 133.796 137.321 133.488 137.308C133.194 137.323 132.907 137.213 132.697 137.006C132.487 136.798 132.374 136.513 132.385 136.218C132.361 135.837 132.55 135.473 132.877 135.275C133.204 135.077 133.614 135.077 133.941 135.275C134.268 135.473 134.458 135.837 134.433 136.218C134.433 136.218 134.429 136.252 134.429 136.274ZM132.589 136.112H134.234C134.234 135.658 133.866 135.29 133.411 135.29C132.957 135.29 132.589 135.658 132.589 136.112Z" fill="white"/>
<path id="Shape_125" fill-rule="evenodd" clip-rule="evenodd" d="M134.756 137.037L134.849 136.871C135.071 137.04 135.342 137.131 135.621 137.13C136.074 137.13 136.257 136.973 136.257 136.727C136.257 136.104 134.832 136.566 134.832 135.722C134.832 135.4 135.103 135.137 135.646 135.137C135.907 135.132 136.164 135.205 136.384 135.345L136.286 135.51C136.097 135.38 135.872 135.312 135.642 135.315C135.218 135.315 135.04 135.489 135.04 135.718C135.04 136.363 136.46 135.909 136.46 136.727C136.46 137.075 136.159 137.312 135.612 137.312C135.303 137.322 135.001 137.225 134.756 137.037V137.037Z" fill="white"/>
<path id="Shape_126" fill-rule="evenodd" clip-rule="evenodd" d="M138.847 136.274H137.003C137.002 136.509 137.1 136.734 137.272 136.895C137.444 137.056 137.675 137.138 137.91 137.122C138.172 137.131 138.424 137.022 138.597 136.825L138.716 136.96C138.512 137.192 138.214 137.319 137.906 137.308C137.611 137.322 137.324 137.213 137.114 137.006C136.904 136.799 136.789 136.513 136.799 136.218C136.783 135.935 136.884 135.658 137.079 135.453C137.275 135.247 137.546 135.131 137.83 135.133C138.111 135.13 138.381 135.244 138.575 135.449C138.769 135.653 138.869 135.929 138.851 136.21C138.851 136.21 138.847 136.252 138.847 136.274ZM137.007 136.112H138.648C138.617 135.682 138.259 135.349 137.828 135.349C137.396 135.349 137.038 135.682 137.007 136.112Z" fill="white"/>
<path id="Shape_127" fill-rule="evenodd" clip-rule="evenodd" d="M140.552 137.16C140.433 137.259 140.283 137.313 140.128 137.312C139.968 137.329 139.81 137.272 139.697 137.159C139.585 137.045 139.529 136.886 139.547 136.727V135.328H139.152V135.15H139.547V134.684H139.75V135.15H140.433V135.328H139.75V136.71C139.75 136.986 139.886 137.134 140.149 137.134C140.271 137.138 140.391 137.095 140.484 137.016L140.552 137.16Z" fill="white"/>
<path id="Shape_128" fill-rule="evenodd" clip-rule="evenodd" d="M144.436 135.392C144.436 135.994 144.012 136.354 143.278 136.354H142.464V137.295H142.252V134.408H143.287C143.999 134.408 144.436 134.781 144.436 135.392ZM144.224 135.392C144.224 134.891 143.893 134.607 143.278 134.607H142.464V136.168H143.287C143.893 136.168 144.224 135.883 144.224 135.392Z" fill="white"/>
<path id="Shape_129" fill-rule="evenodd" clip-rule="evenodd" d="M146.606 135.934V137.295H146.407V136.914C146.247 137.183 145.948 137.337 145.635 137.312C145.156 137.312 144.864 137.066 144.864 136.702C144.864 136.337 145.067 136.1 145.665 136.1H146.399V135.93C146.417 135.758 146.356 135.587 146.231 135.467C146.107 135.347 145.934 135.291 145.763 135.315C145.491 135.312 145.227 135.409 145.021 135.587L144.919 135.438C145.158 135.242 145.458 135.136 145.767 135.137C145.991 135.102 146.219 135.172 146.383 135.329C146.548 135.485 146.63 135.709 146.606 135.934ZM146.399 136.664V136.261H145.669C145.224 136.261 145.067 136.447 145.067 136.685C145.067 136.922 145.284 137.134 145.665 137.134C145.987 137.157 146.285 136.965 146.399 136.664H146.399Z" fill="white"/>
<path id="Shape_130" fill-rule="evenodd" clip-rule="evenodd" d="M147.128 137.037L147.221 136.871C147.442 137.042 147.714 137.133 147.993 137.13C148.447 137.13 148.625 136.973 148.625 136.727C148.625 136.104 147.204 136.566 147.204 135.722C147.204 135.4 147.476 135.137 148.018 135.137C148.278 135.132 148.534 135.204 148.752 135.345L148.659 135.51C148.469 135.38 148.244 135.312 148.014 135.315C147.59 135.315 147.408 135.489 147.408 135.718C147.408 136.363 148.832 135.909 148.832 136.727C148.832 137.075 148.531 137.312 147.984 137.312C147.676 137.323 147.373 137.225 147.128 137.037Z" fill="white"/>
<path id="Shape_131" fill-rule="evenodd" clip-rule="evenodd" d="M149.099 137.037L149.193 136.871C149.415 137.04 149.686 137.131 149.964 137.13C150.418 137.13 150.6 136.973 150.6 136.727C150.6 136.104 149.176 136.566 149.176 135.722C149.176 135.4 149.447 135.137 149.99 135.137C150.251 135.132 150.508 135.205 150.728 135.345L150.63 135.51C150.441 135.38 150.216 135.312 149.986 135.315C149.562 135.315 149.384 135.489 149.384 135.718C149.384 136.363 150.804 135.909 150.804 136.727C150.804 137.075 150.503 137.312 149.956 137.312C149.647 137.322 149.345 137.225 149.099 137.037V137.037Z" fill="white"/>
<path id="Shape_132" fill-rule="evenodd" clip-rule="evenodd" d="M154.404 135.15L153.59 137.295H153.395L152.674 135.434L151.945 137.295H151.758L150.944 135.15H151.139L151.856 137.066L152.589 135.15H152.763L153.492 137.062L154.213 135.15H154.404Z" fill="white"/>
<path id="Shape_133" fill-rule="evenodd" clip-rule="evenodd" d="M154.586 136.223C154.595 135.632 155.081 135.16 155.671 135.167C156.262 135.174 156.736 135.657 156.731 136.248C156.727 136.839 156.245 137.315 155.655 137.312C155.365 137.321 155.085 137.208 154.882 137.001C154.679 136.794 154.572 136.512 154.586 136.223ZM156.52 136.223C156.49 135.763 156.098 135.411 155.637 135.431C155.177 135.45 154.816 135.834 154.825 136.295C154.835 136.756 155.211 137.125 155.672 137.126C155.906 137.126 156.131 137.029 156.292 136.858C156.452 136.687 156.535 136.457 156.52 136.223Z" fill="white"/>
<path id="Shape_134" fill-rule="evenodd" clip-rule="evenodd" d="M158.381 135.137V135.336H158.33C157.855 135.336 157.571 135.654 157.571 136.184V137.3H157.368V135.154H157.563V135.625C157.702 135.303 158.032 135.107 158.381 135.137H158.381Z" fill="white"/>
<path id="Shape_135" fill-rule="evenodd" clip-rule="evenodd" d="M160.832 134.247V137.295H160.632V136.791C160.465 137.12 160.123 137.323 159.755 137.312C159.18 137.276 158.733 136.8 158.733 136.225C158.733 135.649 159.18 135.173 159.755 135.137C160.12 135.128 160.459 135.327 160.628 135.65V134.247H160.832ZM160.628 136.223C160.598 135.763 160.206 135.411 159.746 135.431C159.285 135.45 158.925 135.834 158.934 136.295C158.943 136.756 159.319 137.125 159.78 137.126C160.015 137.126 160.239 137.029 160.4 136.858C160.561 136.687 160.643 136.457 160.628 136.223Z" fill="white"/>
<path id="Shape_136" fill-rule="evenodd" clip-rule="evenodd" d="M188.188 26.8476C188.188 26.9618 168.587 27.0596 144.41 27.0596C120.234 27.0596 100.632 26.9618 100.632 26.8476C100.632 26.7335 120.229 26.6356 144.41 26.6356C168.591 26.6356 188.188 26.7335 188.188 26.8476Z" fill="#263238"/>
<path id="Shape_137" fill-rule="evenodd" clip-rule="evenodd" d="M105.576 23.2691C105.574 23.8563 105.096 24.3306 104.509 24.3291C103.922 24.3275 103.447 23.8507 103.448 23.2634C103.448 22.6762 103.925 22.2006 104.512 22.2006C104.795 22.2006 105.066 22.3133 105.266 22.5138C105.465 22.7143 105.577 22.9861 105.576 23.2691H105.576Z" fill="#263238"/>
<path id="Shape_138" fill-rule="evenodd" clip-rule="evenodd" d="M108.654 23.2691C108.652 23.8563 108.174 24.3306 107.587 24.3291C107 24.3275 106.525 23.8507 106.526 23.2634C106.527 22.6762 107.003 22.2006 107.59 22.2006C107.873 22.2006 108.144 22.3133 108.344 22.5138C108.544 22.7143 108.655 22.9861 108.654 23.2691Z" fill="#263238"/>
<path id="Shape_139" fill-rule="evenodd" clip-rule="evenodd" d="M111.715 23.2691C111.714 23.7003 111.452 24.0878 111.053 24.2504C110.653 24.413 110.195 24.3186 109.893 24.0112C109.59 23.7039 109.503 23.2444 109.672 22.8477C109.841 22.451 110.233 22.1954 110.664 22.2006C111.248 22.2076 111.718 22.6846 111.715 23.2691Z" fill="#263238"/>
<path id="Shape_140" fill-rule="evenodd" clip-rule="evenodd" d="M188.345 152.852C188.345 151.945 188.303 98.1814 188.243 19.9788L188.345 20.0806H100.666L100.776 19.9703C100.776 70.1126 100.776 116.341 100.751 152.843L100.666 152.759L188.353 152.843L100.666 152.933H100.577V152.843C100.577 116.341 100.577 70.1126 100.556 19.9703V19.8601H100.675H188.353H188.455V19.9619C188.387 98.1814 188.345 151.949 188.345 152.852Z" fill="#263238"/>
</g>
<g id="Plant--inject-74">
<path id="Shape_141" fill-rule="evenodd" clip-rule="evenodd" d="M186.742 188.68C186.723 188.62 186.699 188.562 186.67 188.506C186.611 188.383 186.535 188.222 186.437 188.01C186.153 187.368 185.924 186.703 185.754 186.021C185.207 183.491 185.226 180.87 185.81 178.347C186.174 176.598 186.65 174.875 187.234 173.187C187.836 171.36 188.54 169.418 189.108 167.319C189.756 165.127 190.069 162.85 190.037 160.565C189.948 158.177 189.244 155.795 188.464 153.42C187.684 151.046 186.887 148.722 186.645 146.386C186.374 144.141 186.819 141.867 187.917 139.89C188.947 137.995 190.24 136.371 191.211 134.692C192.115 133.134 192.783 131.451 193.191 129.697C193.773 127.154 193.815 124.516 193.314 121.955C193.136 121.019 192.866 120.103 192.509 119.22C192.519 119.282 192.534 119.343 192.555 119.403C192.598 119.534 192.649 119.708 192.721 119.928C192.923 120.6 193.09 121.283 193.221 121.972C193.683 124.519 193.615 127.135 193.022 129.655C192.608 131.39 191.938 133.053 191.033 134.59C190.067 136.248 188.769 137.864 187.718 139.78C186.584 141.794 186.12 144.116 186.39 146.411C186.632 148.786 187.438 151.126 188.214 153.496C188.99 155.867 189.689 158.228 189.778 160.573C189.813 162.833 189.509 165.086 188.875 167.255C188.311 169.346 187.603 171.287 187.022 173.123C186.442 174.821 185.975 176.554 185.623 178.313C184.97 181.544 185.157 184.275 185.644 186.047C185.827 186.729 186.071 187.393 186.373 188.031L186.632 188.519C186.663 188.576 186.7 188.63 186.742 188.68Z" fill="#263238"/>
<path id="Shape_142" fill-rule="evenodd" clip-rule="evenodd" d="M189.914 136.333C189.914 136.333 191.881 130.041 188.349 126.356C188.293 126.295 188.208 126.271 188.128 126.295C188.049 126.318 187.99 126.385 187.976 126.466C187.79 127.505 187.552 130.668 189.914 136.333Z" fill="#1A4F8B"/>
<path id="Shape_143" fill-rule="evenodd" clip-rule="evenodd" d="M188.735 128.472C188.739 128.863 188.783 129.252 188.867 129.634C188.994 130.435 189.147 131.372 189.316 132.411C189.486 133.45 189.63 134.387 189.74 135.184C189.771 135.573 189.841 135.958 189.948 136.333C189.982 135.943 189.969 135.55 189.91 135.163C189.846 134.446 189.719 133.467 189.541 132.369C189.363 131.27 189.176 130.308 189.019 129.604C188.966 129.218 188.871 128.838 188.735 128.472Z" fill="#263238"/>
<path id="Shape_144" fill-rule="evenodd" clip-rule="evenodd" d="M187.603 151.169C187.603 151.169 186.399 144.69 181.557 143.083C181.479 143.058 181.394 143.078 181.335 143.134C181.277 143.191 181.254 143.276 181.277 143.354C181.595 144.359 182.867 147.268 187.603 151.169Z" fill="#1A4F8B"/>
<path id="Shape_145" fill-rule="evenodd" clip-rule="evenodd" d="M182.875 144.758C183.062 145.1 183.282 145.422 183.533 145.72L185.229 147.963C185.86 148.811 186.429 149.566 186.925 150.21C187.138 150.537 187.38 150.845 187.646 151.131C187.493 150.77 187.3 150.429 187.069 150.113C186.675 149.507 186.098 148.693 185.432 147.815C184.767 146.937 184.16 146.165 183.681 145.614C183.445 145.3 183.175 145.013 182.875 144.758V144.758Z" fill="#263238"/>
<path id="Shape_146" fill-rule="evenodd" clip-rule="evenodd" d="M188.909 167.429C188.909 167.429 189.643 160.878 185.475 157.936C185.408 157.888 185.32 157.882 185.247 157.92C185.174 157.957 185.128 158.032 185.127 158.114C185.14 159.17 185.513 162.32 188.909 167.429Z" fill="#1A4F8B"/>
<path id="Shape_147" fill-rule="evenodd" clip-rule="evenodd" d="M186.251 159.92C186.327 160.303 186.445 160.677 186.603 161.035C186.882 161.794 187.209 162.689 187.569 163.672C187.93 164.656 188.256 165.551 188.532 166.314C188.638 166.688 188.78 167.052 188.956 167.399C188.917 167.01 188.83 166.627 188.697 166.259C188.498 165.568 188.184 164.618 187.802 163.588C187.421 162.557 187.048 161.633 186.764 160.972C186.631 160.603 186.459 160.251 186.251 159.92V159.92Z" fill="#263238"/>
<path id="Shape_148" fill-rule="evenodd" clip-rule="evenodd" d="M185.263 183.787C185.263 183.787 185.759 177.211 181.489 174.421C181.421 174.374 181.332 174.369 181.26 174.41C181.187 174.451 181.145 174.529 181.15 174.612C181.201 175.663 181.684 178.801 185.263 183.787Z" fill="#1A4F8B"/>
<path id="Shape_149" fill-rule="evenodd" clip-rule="evenodd" d="M182.32 176.384C182.417 176.763 182.549 177.132 182.714 177.486C183.02 178.237 183.38 179.115 183.779 180.085C184.177 181.056 184.529 181.943 184.834 182.689C184.951 183.061 185.106 183.421 185.297 183.762C185.24 183.374 185.139 182.994 184.996 182.629C184.771 181.947 184.423 181.01 184.003 179.992C183.584 178.975 183.181 178.067 182.871 177.414C182.729 177.05 182.544 176.705 182.32 176.384V176.384Z" fill="#263238"/>
<path id="Shape_150" fill-rule="evenodd" clip-rule="evenodd" d="M192.742 130.804C192.742 130.804 198.585 127.751 198.699 122.65C198.7 122.568 198.656 122.492 198.584 122.453C198.512 122.414 198.424 122.418 198.356 122.464C197.487 123.066 195.082 125.131 192.742 130.804Z" fill="#1A4F8B"/>
<path id="Shape_151" fill-rule="evenodd" clip-rule="evenodd" d="M197.487 124.406C197.21 124.682 196.966 124.987 196.757 125.317L195.108 127.594C194.493 128.442 193.933 129.214 193.454 129.867C193.207 130.168 192.984 130.488 192.789 130.825C193.09 130.576 193.361 130.291 193.594 129.977C194.056 129.422 194.667 128.633 195.29 127.738C195.913 126.844 196.494 126.042 196.884 125.415C197.12 125.101 197.322 124.762 197.487 124.406L197.487 124.406Z" fill="#263238"/>
<path id="Shape_152" fill-rule="evenodd" clip-rule="evenodd" d="M186.467 144.317C186.467 144.317 192.496 141.616 192.92 136.528C192.93 136.445 192.891 136.364 192.82 136.32C192.75 136.275 192.66 136.275 192.589 136.32C191.674 136.88 189.146 138.796 186.467 144.317Z" fill="#1A4F8B"/>
<path id="Shape_153" fill-rule="evenodd" clip-rule="evenodd" d="M191.589 138.224C191.301 138.479 191.039 138.764 190.809 139.072L189.024 141.243L187.238 143.414C186.97 143.696 186.727 144.003 186.513 144.33C186.827 144.097 187.111 143.828 187.361 143.528C187.858 143.002 188.515 142.256 189.21 141.408C189.905 140.56 190.516 139.767 190.94 139.186C191.194 138.892 191.411 138.569 191.589 138.224H191.589Z" fill="#263238"/>
<path id="Shape_154" fill-rule="evenodd" clip-rule="evenodd" d="M189.927 159.386C189.927 159.386 194.061 154.251 192.123 149.532C192.093 149.455 192.022 149.402 191.94 149.394C191.857 149.386 191.778 149.425 191.733 149.494C191.178 150.393 189.804 153.255 189.927 159.386Z" fill="#1A4F8B"/>
<path id="Shape_155" fill-rule="evenodd" clip-rule="evenodd" d="M191.712 151.622C191.573 151.987 191.472 152.365 191.411 152.75C191.237 153.543 191.037 154.472 190.813 155.498L190.211 158.241C190.1 158.615 190.024 158.998 189.982 159.386C190.159 159.038 190.292 158.669 190.376 158.288C190.58 157.592 190.825 156.626 191.054 155.553C191.283 154.48 191.478 153.496 191.58 152.784C191.667 152.403 191.711 152.013 191.712 151.622V151.622Z" fill="#263238"/>
<path id="Shape_156" fill-rule="evenodd" clip-rule="evenodd" d="M185.835 177.122C185.835 177.122 191.805 174.332 192.144 169.24C192.15 169.158 192.11 169.08 192.04 169.038C191.97 168.996 191.883 168.997 191.814 169.04C190.919 169.6 188.426 171.559 185.835 177.122Z" fill="#1A4F8B"/>
<path id="Shape_157" fill-rule="evenodd" clip-rule="evenodd" d="M190.855 170.94C190.571 171.206 190.314 171.5 190.088 171.818L188.345 174.022C187.688 174.845 187.099 175.587 186.59 176.219C186.327 176.506 186.092 176.817 185.886 177.147C186.2 176.911 186.485 176.638 186.734 176.333C187.221 175.799 187.866 175.04 188.544 174.175C189.223 173.31 189.816 172.513 190.24 171.924C190.481 171.619 190.687 171.289 190.855 170.94Z" fill="#263238"/>
<path id="Shape_158" fill-rule="evenodd" clip-rule="evenodd" d="M173.942 151.207C173.942 151.207 173.942 151.258 173.942 151.351C173.942 151.444 173.942 151.605 173.942 151.775C173.963 152.174 173.984 152.708 174.014 153.373C174.09 154.781 174.2 156.74 174.328 159.085C174.752 161.468 175.968 164.113 177.601 166.679C178.797 168.57 180.052 170.291 181.137 171.89C182.12 173.286 183.004 174.75 183.783 176.269C184.297 177.3 184.712 178.376 185.025 179.483C185.131 179.878 185.207 180.183 185.254 180.395C185.272 180.504 185.302 180.611 185.343 180.713C185.336 180.602 185.322 180.491 185.301 180.382C185.271 180.17 185.207 179.857 185.118 179.458C184.837 178.333 184.442 177.239 183.94 176.193C183.18 174.653 182.305 173.172 181.324 171.762C180.251 170.151 179 168.43 177.809 166.547C176.189 164.003 174.981 161.391 174.535 159.042C174.37 156.698 174.23 154.743 174.133 153.34C174.077 152.674 174.035 152.14 174.005 151.741C174.005 151.576 173.971 151.436 173.963 151.317C173.959 151.28 173.952 151.243 173.942 151.207Z" fill="#263238"/>
<path id="Shape_159" fill-rule="evenodd" clip-rule="evenodd" d="M177.495 166.208C177.495 166.208 174.951 160.119 178.148 156.129C178.198 156.063 178.281 156.032 178.363 156.048C178.444 156.064 178.509 156.126 178.529 156.206C178.814 157.215 179.352 160.344 177.495 166.208Z" fill="#1A4F8B"/>
<path id="Shape_160" fill-rule="evenodd" clip-rule="evenodd" d="M177.957 158.245C177.848 158.621 177.781 159.008 177.758 159.399C177.669 160.111 177.567 161.095 177.486 162.201C177.406 163.308 177.372 164.291 177.372 165.017C177.346 165.407 177.371 165.798 177.444 166.183C177.512 165.799 177.546 165.41 177.546 165.021C177.601 164.211 177.665 163.265 177.732 162.218C177.8 161.171 177.872 160.221 177.932 159.411C177.979 159.024 177.987 158.634 177.957 158.245Z" fill="#263238"/>
<g id="Group_3" opacity="0.3">
<path id="Shape_161" fill-rule="evenodd" clip-rule="evenodd" d="M177.495 166.208C177.495 166.208 174.951 160.119 178.148 156.129C178.198 156.063 178.281 156.032 178.363 156.048C178.444 156.064 178.509 156.126 178.529 156.206C178.814 157.215 179.352 160.344 177.495 166.208Z" fill="black"/>
</g>
<path id="Shape_162" fill-rule="evenodd" clip-rule="evenodd" d="M185.33 180.87C185.33 180.87 183.304 174.595 186.798 170.876C186.854 170.818 186.938 170.796 187.016 170.818C187.094 170.84 187.153 170.903 187.171 170.982C187.37 172.021 187.637 175.184 185.33 180.87Z" fill="#1A4F8B"/>
<path id="Shape_163" fill-rule="evenodd" clip-rule="evenodd" d="M186.433 172.992C186.293 173.357 186.195 173.737 186.14 174.124C185.992 174.828 185.814 175.82 185.644 176.893C185.475 177.965 185.36 178.97 185.301 179.691C185.253 180.08 185.253 180.473 185.301 180.861C185.398 180.485 185.464 180.1 185.496 179.712C185.615 178.911 185.754 177.97 185.92 176.931C186.085 175.892 186.221 174.955 186.344 174.154C186.413 173.771 186.443 173.381 186.433 172.992Z" fill="#263238"/>
<g id="Group_4" opacity="0.3">
<path id="Shape_164" fill-rule="evenodd" clip-rule="evenodd" d="M185.33 180.87C185.33 180.87 183.304 174.595 186.798 170.876C186.854 170.818 186.938 170.796 187.016 170.818C187.094 170.84 187.153 170.903 187.171 170.982C187.37 172.021 187.637 175.184 185.33 180.87Z" fill="black"/>
</g>
<path id="Shape_165" fill-rule="evenodd" clip-rule="evenodd" d="M174.264 158.758C174.264 158.758 168.862 154.976 169.409 149.905C169.416 149.823 169.468 149.751 169.545 149.721C169.621 149.69 169.708 149.706 169.77 149.761C170.567 150.469 172.687 152.831 174.264 158.758Z" fill="#1A4F8B"/>
<g id="Group_5" opacity="0.3">
<path id="Shape_166" fill-rule="evenodd" clip-rule="evenodd" d="M174.264 158.758C174.264 158.758 168.862 154.976 169.409 149.905C169.416 149.823 169.468 149.751 169.545 149.721C169.621 149.69 169.708 149.706 169.77 149.761C170.567 150.469 172.687 152.831 174.264 158.758Z" fill="black"/>
</g>
<path id="Shape_167" fill-rule="evenodd" clip-rule="evenodd" d="M170.397 151.792C170.507 152.166 170.657 152.528 170.847 152.869C171.152 153.522 171.601 154.412 172.119 155.379C172.636 156.346 173.145 157.211 173.531 157.817C173.722 158.159 173.952 158.478 174.217 158.767C174.073 158.404 173.894 158.057 173.683 157.728C173.293 157.02 172.835 156.185 172.335 155.265L170.995 152.793C170.83 152.44 170.63 152.105 170.397 151.792H170.397Z" fill="#263238"/>
<path id="Shape_168" fill-rule="evenodd" clip-rule="evenodd" d="M183.168 174.65C183.168 174.65 176.655 173.632 174.913 168.841C174.882 168.765 174.898 168.678 174.953 168.617C175.008 168.556 175.092 168.531 175.171 168.553C176.172 168.841 179.115 170.024 183.168 174.65Z" fill="#1A4F8B"/>
<g id="Group_6" opacity="0.3">
<path id="Shape_169" fill-rule="evenodd" clip-rule="evenodd" d="M183.168 174.65C183.168 174.65 176.655 173.632 174.913 168.841C174.882 168.765 174.898 168.678 174.953 168.617C175.008 168.556 175.092 168.531 175.171 168.553C176.172 168.841 179.115 170.024 183.168 174.65Z" fill="black"/>
</g>
<path id="Shape_170" fill-rule="evenodd" clip-rule="evenodd" d="M176.604 170.109C176.866 170.399 177.161 170.658 177.482 170.88C178.046 171.33 178.839 171.932 179.734 172.576C180.628 173.221 181.464 173.768 182.078 174.141C182.4 174.366 182.747 174.551 183.113 174.692C182.822 174.431 182.507 174.198 182.172 173.997L179.878 172.377L177.588 170.745C177.282 170.501 176.952 170.288 176.605 170.109H176.604Z" fill="#263238"/>
<path id="Polygon_7" fill-rule="evenodd" clip-rule="evenodd" d="M190.859 186.636L188.99 198.89L181.531 198.877L179.017 186.636H190.859Z" fill="#455A64"/>
<path id="Shape_171" fill-rule="evenodd" clip-rule="evenodd" d="M184.05 190.571C184.253 190.265 184.371 189.911 184.393 189.545C184.439 189.127 184.243 188.72 183.889 188.493C183.486 188.29 183.003 188.33 182.638 188.595C182.268 188.867 182.013 189.268 181.926 189.719C181.827 190.174 181.795 190.641 181.832 191.105C181.856 191.589 181.957 192.066 182.133 192.517C182.312 192.991 182.603 193.415 182.981 193.751C183.381 194.105 183.886 194.317 184.419 194.353C184.948 194.364 185.467 194.217 185.911 193.929C186.337 193.657 186.713 193.316 187.026 192.92C187.346 192.539 187.543 192.071 187.59 191.576C187.628 191.083 187.432 190.601 187.06 190.274C186.674 189.99 186.156 189.958 185.737 190.194C185.342 190.392 185.061 190.761 184.974 191.194C184.861 191.973 185.236 192.742 185.92 193.132C186.47 193.432 187.109 193.525 187.722 193.395C188.171 193.3 188.601 193.129 188.994 192.89C189.244 192.744 189.484 192.583 189.715 192.407C189.799 192.35 189.876 192.283 189.944 192.208C189.856 192.258 189.771 192.313 189.689 192.373C189.524 192.479 189.265 192.644 188.956 192.822C188.559 193.043 188.13 193.198 187.684 193.28C187.104 193.389 186.504 193.293 185.988 193.009C185.37 192.642 185.035 191.939 185.14 191.228C185.221 190.849 185.471 190.527 185.818 190.355C186.173 190.155 186.613 190.181 186.942 190.423C187.263 190.711 187.43 191.133 187.395 191.563C187.348 192.019 187.163 192.449 186.865 192.797C186.566 193.172 186.208 193.496 185.805 193.755C185.396 194.024 184.917 194.164 184.427 194.158C183.941 194.122 183.48 193.928 183.113 193.607C182.754 193.293 182.477 192.897 182.303 192.454C182.134 192.021 182.035 191.565 182.011 191.101C181.973 190.657 182 190.21 182.091 189.774C182.165 189.366 182.391 189.001 182.723 188.752C183.031 188.523 183.44 188.482 183.787 188.646C184.086 188.844 184.25 189.192 184.211 189.549C184.194 189.888 184.087 190.215 183.902 190.499C183.563 190.988 183.075 191.354 182.511 191.542C182.087 191.691 181.635 191.745 181.188 191.699C180.805 191.653 180.432 191.543 180.086 191.372C180.086 191.372 180.086 191.372 180.145 191.419C180.209 191.459 180.276 191.496 180.344 191.529C180.611 191.66 180.897 191.745 181.192 191.779C181.654 191.842 182.124 191.797 182.566 191.648C183.161 191.461 183.679 191.086 184.041 190.579" fill="#263238"/>
</g>
</g>
</g>
</svg>
