<svg width="18" height="19" viewBox="0 0 18 19" fill="none" xmlns="http://www.w3.org/2000/svg">
<g id="Mail Send Envelope" clip-path="url(#clip0_1_10)">
<g id="mail-send-envelope--envelope-email-message-unopened-sealed-close">
<path id="Subtract" fill-rule="evenodd" clip-rule="evenodd" d="M0 4.03571C0 3.52422 0.203188 3.03368 0.564865 2.67201C0.926543 2.31033 1.41708 2.10714 1.92857 2.10714H16.0714C16.5829 2.10714 17.0735 2.31033 17.4351 2.67201C17.7968 3.03368 18 3.52422 18 4.03571V4.47543L9.49243 10.148C9.34392 10.2374 9.1733 10.2833 9 10.2804C8.8267 10.2833 8.65608 10.2374 8.50757 10.148L0 4.47543V4.03571ZM0 6.40657V14.9643C0 15.4758 0.203188 15.9663 0.564865 16.328C0.926543 16.6897 1.41708 16.8929 1.92857 16.8929H16.0714C16.5829 16.8929 17.0735 16.6897 17.4351 16.328C17.7968 15.9663 18 15.4758 18 14.9643V6.40657L10.3796 11.4877L10.3731 11.4929C9.96291 11.7537 9.48615 11.8908 9 11.8876C8.51786 11.8876 8.03186 11.7564 7.62686 11.4929L7.62043 11.4877L0 6.40657Z" fill="black"/>
</g>
</g>
<defs>
<clipPath id="clip0_1_10">
<rect width="18" height="18" fill="white" transform="translate(0 0.5)"/>
</clipPath>
</defs>
</svg>
