<svg width="18" height="19" viewBox="0 0 18 19" fill="none" xmlns="http://www.w3.org/2000/svg">
<g id="User Check Validate" clip-path="url(#clip0_1_21)">
<g id="user-check-validate--actions-close-checkmark-check-geometric-human-person-single-success-up-user">
<path id="Union" fill-rule="evenodd" clip-rule="evenodd" d="M10.2857 4.35714C10.2857 5.38012 9.87934 6.3612 9.15599 7.08455C8.43263 7.80791 7.45155 8.21429 6.42857 8.21429C5.4056 8.21429 4.42452 7.80791 3.70116 7.08455C2.97781 6.3612 2.57143 5.38012 2.57143 4.35714C2.57143 3.33416 2.97781 2.35309 3.70116 1.62973C4.42452 0.906376 5.4056 0.5 6.42857 0.5C7.45155 0.5 8.43263 0.906376 9.15599 1.62973C9.87934 2.35309 10.2857 3.33416 10.2857 4.35714ZM7.77857 16.5714H0.64286C0.472364 16.5714 0.30885 16.5037 0.188291 16.3831C0.0677322 16.2626 2.78813e-06 16.0991 2.78813e-06 15.9286C-0.00141282 14.4079 0.536272 12.936 1.51753 11.7743C2.49879 10.6126 3.86009 9.83639 5.35957 9.58352C6.85905 9.33065 8.39962 9.61752 9.70759 10.3932C11.0156 11.1688 12.0062 12.383 12.5036 13.82L12.4059 13.9614L11.6331 13.442C11.1748 13.1113 10.6203 12.9408 10.0553 12.9568C9.49038 12.9729 8.94645 13.1746 8.50766 13.5309C8.06888 13.8871 7.75968 14.378 7.62789 14.9276C7.4961 15.4772 7.54906 16.0549 7.77857 16.5714ZM17.8071 12.3286C17.9606 12.124 18.0265 11.8668 17.9903 11.6136C17.9541 11.3605 17.8189 11.132 17.6143 10.9786C17.4097 10.8251 17.1525 10.7592 16.8993 10.7954C16.6462 10.8316 16.4177 10.9668 16.2643 11.1714L12.8314 16.1857L10.71 14.7586C10.6087 14.6826 10.4934 14.6273 10.3707 14.5959C10.2481 14.5645 10.1204 14.5575 9.99506 14.5754C9.8697 14.5933 9.7491 14.6357 9.64013 14.7003C9.53117 14.7648 9.43598 14.8501 9.36 14.9514C9.28402 15.0527 9.22874 15.168 9.19731 15.2907C9.16589 15.4134 9.15893 15.541 9.17684 15.6664C9.19475 15.7917 9.23717 15.9123 9.30169 16.0213C9.36621 16.1303 9.45155 16.2254 9.55286 16.3014L12.4457 18.3071C12.547 18.3831 12.6623 18.4384 12.785 18.4698C12.9076 18.5013 13.0353 18.5082 13.1607 18.4903C13.286 18.4724 13.4066 18.43 13.5156 18.3655C13.6245 18.3009 13.7197 18.2156 13.7957 18.1143L17.8071 12.3286Z" fill="black"/>
</g>
</g>
<defs>
<clipPath id="clip0_1_21">
<rect width="18" height="18" fill="white" transform="translate(0 0.5)"/>
</clipPath>
</defs>
</svg>
