<svg width="18" height="18" viewBox="0 0 18 18" fill="none" xmlns="http://www.w3.org/2000/svg">
<g id="User Add Plus" clip-path="url(#clip0_1_15)">
<g id="user-add-plus--actions-add-close-geometric-human-person-plus-single-up-user">
<path id="Union" fill-rule="evenodd" clip-rule="evenodd" d="M10.2857 3.85714C10.2857 4.88012 9.87934 5.8612 9.15598 6.58455C8.43263 7.30791 7.45155 7.71429 6.42857 7.71429C5.40559 7.71429 4.42451 7.30791 3.70116 6.58455C2.97781 5.8612 2.57143 4.88012 2.57143 3.85714C2.57143 2.83416 2.97781 1.85309 3.70116 1.12973C4.42451 0.406376 5.40559 0 6.42857 0C7.45155 0 8.43263 0.406376 9.15598 1.12973C9.87934 1.85309 10.2857 2.83416 10.2857 3.85714ZM13.8214 9.64286C14.0772 9.64286 14.3224 9.74445 14.5033 9.92529C14.6841 10.1061 14.7857 10.3514 14.7857 10.6071V12.8571H17.0357C17.2915 12.8571 17.5367 12.9587 17.7176 13.1396C17.8984 13.3204 18 13.5657 18 13.8214C18 14.0772 17.8984 14.3224 17.7176 14.5033C17.5367 14.6841 17.2915 14.7857 17.0357 14.7857H14.7857V17.0357C14.7857 17.2915 14.6841 17.5367 14.5033 17.7176C14.3224 17.8984 14.0772 18 13.8214 18C13.5657 18 13.3204 17.8984 13.1396 17.7176C12.9587 17.5367 12.8571 17.2915 12.8571 17.0357V14.7857H10.6071C10.3514 14.7857 10.1061 14.6841 9.92529 14.5033C9.74445 14.3224 9.64286 14.0772 9.64286 13.8214C9.64286 13.5657 9.74445 13.3204 9.92529 13.1396C10.1061 12.9587 10.3514 12.8571 10.6071 12.8571H12.8571V10.6071C12.8571 10.3514 12.9587 10.1061 13.1396 9.92529C13.3204 9.74445 13.5657 9.64286 13.8214 9.64286ZM6.42857 9C8.34814 9 10.0723 9.84214 11.25 11.1767V11.25H10.6071C10.0369 11.2495 9.48262 11.4386 9.03155 11.7875C8.58049 12.1364 8.2582 12.6254 8.11539 13.1775C7.97258 13.7296 8.01735 14.3135 8.24266 14.8374C8.46796 15.3612 8.86102 15.7953 9.36 16.0714H0.642857C0.472361 16.0714 0.308848 16.0037 0.188289 15.8831C0.0677294 15.7626 0 15.5991 0 15.4286C0 13.7236 0.677294 12.0885 1.88288 10.8829C3.08848 9.67729 4.72361 9 6.42857 9Z" fill="black"/>
</g>
</g>
<defs>
<clipPath id="clip0_1_15">
<rect width="18" height="18" fill="white"/>
</clipPath>
</defs>
</svg>
